<?xml version="1.0" encoding="UTF-8"?>
<svg width="24px" height="24px" viewBox="0 0 24 24" version="1.1" xmlns="http://www.w3.org/2000/svg" xmlns:xlink="http://www.w3.org/1999/xlink">
    <!-- Generator: Sketch 46.2 (44496) - http://www.bohemiancoding.com/sketch -->
    <title>Group</title>
    <desc>Created with Sketch.</desc>
    <defs></defs>
    <g id="Android" stroke="none" stroke-width="1" fill="none" fill-rule="evenodd">
        <g id="1---Login-/-Signup-Landing_Android-" transform="translate(-48.000000, -230.000000)" fill-rule="nonzero">
            <g id="Group-2" transform="translate(24.000000, 216.000000)">
                <g id="Group" transform="translate(24.000000, 14.000000)">
                    <path d="M24,22.5 C24,23.328 23.328,24 22.5,24 L1.5,24 C0.672,24 0,23.328 0,22.5 L0,1.5 C0,0.672 0.672,0 1.5,0 L22.5,0 C23.328,0 24,0.672 24,1.5 L24,22.5 Z" id="Shape" fill="#3B5998"></path>
                    <path d="M16.5,24 L16.5,15 L19.5,15 L20.25,11.25 L16.5,11.25 L16.5,9.75 C16.5,8.25 17.2515,7.5 18.75,7.5 L20.25,7.5 L20.25,3.75 L17.25,3.75 C14.49375,3.75 12.75,5.91075 12.75,9 L12.75,11.25 L9.75,11.25 L9.75,15 L12.75,15 L12.75,24 L16.5,24 Z" id="f" fill="#FFFFFF"></path>
                </g>
            </g>
        </g>
    </g>
</svg>