<?xml version="1.0" encoding="UTF-8"?>
<svg width="48px" height="48px" viewBox="0 0 48 48" version="1.1" xmlns="http://www.w3.org/2000/svg" xmlns:xlink="http://www.w3.org/1999/xlink">
    <!-- Generator: Sketch 46.2 (44496) - http://www.bohemiancoding.com/sketch -->
    <title>Group 2</title>
    <desc>Created with Sketch.</desc>
    <defs></defs>
    <g id="Android" stroke="none" stroke-width="1" fill="none" fill-rule="evenodd">
        <g id="2.5---Register-Sucess-Screen_Android---Modal" transform="translate(-156.000000, -197.000000)">
            <g id="Group-2" transform="translate(156.000000, 197.000000)">
                <g id="Group-3">
                    <circle id="Oval-3" fill="#88C343" cx="24" cy="24" r="24"></circle>
                    <path d="M33.4829976,18.9881099 L30.6829392,16.1198522 C30.526936,15.9600493 30.2733307,15.9600493 30.1173274,16.1198522 L20.399525,26.0743454 L17.8826726,23.4961915 C17.7266693,23.3363886 17.473064,23.3363886 17.3170608,23.4961915 L14.5170024,26.3644492 C14.3609992,26.5242521 14.3609992,26.7840343 14.5170024,26.9438373 L20.1171191,32.6803527 C20.1947207,32.7598444 20.2971229,32.8 20.399525,32.8 C20.5019271,32.8 20.6043293,32.7598444 20.6827309,32.6803527 L33.4829976,19.5683175 C33.6390008,19.4085145 33.6390008,19.1487323 33.4829976,18.9881099 L33.4829976,18.9881099 Z" id="Shape" fill="#FFFFFF"></path>
                </g>
            </g>
        </g>
    </g>
</svg>