<?xml version="1.0" encoding="UTF-8"?>
<svg width="38px" height="38px" viewBox="0 0 38 38" version="1.1" xmlns="http://www.w3.org/2000/svg" xmlns:xlink="http://www.w3.org/1999/xlink">
    <!-- Generator: Sketch 45.1 (43504) - http://www.bohemiancoding.com/sketch -->
    <title>Group 20</title>
    <desc>Created with Sketch.</desc>
    <defs></defs>
    <g id="Page-1" stroke="none" stroke-width="1" fill="none" fill-rule="evenodd">
        <g id="CTA-on-Release" transform="translate(-306.000000, -447.000000)">
            <g id="Group-20" transform="translate(306.000000, 447.000000)">
                <circle id="Oval-2" fill="#FFFFFF" cx="19" cy="19" r="19"></circle>
                <g id="Group" transform="translate(13.000000, 4.000000)" fill-rule="nonzero" fill="#D4D4D4">
                    <path d="M11.4963697,18.2892106 C10.836742,18.4767923 10.6011606,18.0078382 10.4598118,17.4450932 C10.1771142,16.4133942 9.84730031,15.3816951 9.56460269,14.349996 C9.37613761,13.7403557 9.18767253,13.0838199 8.99920746,12.4741796 C8.95209119,12.4741796 8.85785865,12.4741796 8.81074238,12.4741796 C8.81074238,13.0838199 8.85785865,13.7403557 8.95209119,14.349996 C9.37613761,16.9761391 10.5069281,19.4615959 10.9309745,22.087739 C10.7425094,22.087739 10.5540443,22.1346344 10.4126955,22.1346344 C8.81074238,22.1815298 8.81074238,22.1815298 8.81074238,23.7759738 C8.81074238,25.6986857 8.81074238,26.2145352 8.81074238,28.1372471 C8.81074238,29.1220508 8.33957968,29.6379003 7.58571937,29.6379003 C6.83185906,29.6379003 6.40781264,29.1220508 6.40781264,28.1841425 C6.40781264,26.0269536 6.40781264,25.2297316 6.40781264,23.0725427 C6.40781264,22.7442748 6.3135801,22.4629023 6.26646383,22.1346344 C6.17223129,22.1346344 6.07799875,22.1346344 5.93664995,22.1346344 C5.88953368,22.4160069 5.79530114,22.6973794 5.74818487,23.0256472 C5.74818487,25.1828362 5.74818487,25.9800582 5.74818487,28.1372471 C5.74818487,29.1689462 5.32413844,29.6379003 4.52316186,29.6379003 C3.76930155,29.6379003 3.29813886,29.0751554 3.29813886,28.0903517 C3.29813886,26.073849 3.29813886,25.4173132 3.29813886,23.4008105 L3.29813886,22.1346344 L1.17790674,22.1346344 C1.60195316,19.4615959 2.73274363,16.9761391 3.06255751,14.3031006 C3.15679005,13.6934603 3.15679005,13.0838199 3.15679005,12.4272842 C2.96832497,13.0369245 2.77985989,13.6934603 2.59139482,14.3031006 C2.3086972,15.2410089 2.02599958,16.1789171 1.74330197,17.1168253 C1.6961857,17.2575116 1.6961857,17.4450932 1.64906943,17.6326749 C1.46060435,18.1485244 1.13079047,18.3830015 0.612511502,18.2423152 C0.0471162694,18.101629 -0.0471162694,17.7264657 0.0942325388,17.2575116 C0.518278963,15.8037538 0.895209119,14.349996 1.31925554,12.8962383 C1.50772062,12.2865979 1.6961857,11.6300621 1.83753451,11.0204218 C1.97888332,10.5514677 2.16734839,10.0356181 2.26158093,9.51976861 C2.3086972,9.09770991 2.45004601,8.76944202 2.68562736,8.53496496 C2.96832497,8.20669708 3.3923714,8.06601085 3.95776663,8.06601085 C4.05199917,8.06601085 4.14623171,8.06601085 4.28758052,8.06601085 C4.42892932,8.06601085 4.57027813,8.06601085 4.75874321,8.06601085 C4.99432456,8.62875579 5.60683606,9.0508145 6.26646383,9.0508145 C6.9260916,9.00391908 7.49148684,8.6756512 7.72706818,8.11290626 C8.05688207,8.11290626 8.38669595,8.15980167 8.71650984,8.15980167 C8.71650984,8.15980167 8.76362611,8.15980167 8.76362611,8.15980167 C8.85785865,8.15980167 8.95209119,8.20669708 9.04632373,8.25359249 C9.32902134,8.39427873 9.61171896,8.72254661 9.7059515,8.95702367 C10.2242305,10.5983631 10.6953932,12.2397025 11.1665558,13.9279373 C11.4492535,14.912741 11.7319511,15.8975446 12.0146487,16.8823483 C12.2031138,17.5857795 12.2031138,18.101629 11.4963697,18.2892106 Z" id="Shape"></path>
                    <path d="M9.65883523,3.32957424 C9.37613761,2.11029354 8.66939357,0.797222002 7.3972543,0.515849531 C6.73762653,0.375163295 6.07799875,0.328267883 5.41837098,0.422058707 C4.14623171,0.609640355 3.20390632,1.68823483 2.73274363,2.95441095 C2.49716228,3.5640513 2.45004601,4.22058707 2.49716228,4.87712284 C2.54427855,5.67434484 2.77985989,6.47156684 3.06255751,7.26878884 C3.29813886,7.12810261 3.48660394,6.98741637 3.67506901,6.84673014 C3.95776663,6.61225308 3.95776663,6.65914849 4.28758052,6.84673014 C4.80585948,7.17499802 5.37125471,7.36257967 5.98376621,7.40947508 C6.73762653,7.45637049 7.3972543,7.22189343 8.0097658,6.79983472 C8.19823088,6.65914849 8.33957968,6.65914849 8.52804476,6.79983472 C8.71650984,6.94052096 8.90497492,7.0812072 9.14055626,7.26878884 C9.2347888,6.98741637 9.32902134,6.79983472 9.37613761,6.56535767 C9.7059515,5.48676319 9.89441658,4.40816872 9.65883523,3.32957424 Z M8.71650984,4.31437789 C8.66939357,4.36127331 8.6222773,4.45506413 8.57516103,4.50195954 C8.52804476,4.54885495 8.48092849,4.59575037 8.48092849,4.59575037 C8.48092849,4.59575037 8.48092849,4.59575037 8.48092849,4.59575037 C8.29246342,4.64264578 8.19823088,5.20539072 8.15111461,5.34607696 C8.0097658,5.62744943 7.86841699,5.86192649 7.63283564,6.04950813 C7.20878922,6.47156684 6.69051026,6.75293931 6.07799875,6.7060439 C5.46548725,6.7060439 4.90009202,6.37777602 4.52316186,5.95571731 C4.28758052,5.72124025 4.09911544,5.39297237 4.0048829,5.1115999 C3.95776663,5.01780907 3.91065036,4.64264578 3.76930155,4.59575037 C3.76930155,4.59575037 3.76930155,4.59575037 3.76930155,4.59575037 C3.72218528,4.59575037 3.67506901,4.54885495 3.67506901,4.50195954 C3.62795274,4.45506413 3.58083647,4.36127331 3.53372021,4.31437789 C3.3923714,4.12679625 3.29813886,3.84542378 3.29813886,3.61094672 C3.29813886,3.5640513 3.29813886,3.51715589 3.29813886,3.51715589 C3.29813886,3.47026048 3.29813886,3.47026048 3.29813886,3.42336507 C3.29813886,3.42336507 3.29813886,3.42336507 3.29813886,3.42336507 C3.15679005,3.37646966 3.29813886,3.23578342 3.34525513,3.28267883 C3.43948767,3.28267883 3.48660394,3.42336507 3.53372021,3.51715589 C3.53372021,3.5640513 3.58083647,3.61094672 3.62795274,3.61094672 C3.67506901,3.61094672 3.72218528,3.51715589 3.72218528,3.47026048 C3.81641782,3.09509718 4.19334798,2.53235224 4.6173944,2.67303848 C4.99432456,2.81372471 5.32413844,3.04820177 5.7010686,3.23578342 C6.17223129,3.47026048 6.73762653,3.5640513 7.25590549,3.61094672 C7.72706818,3.65784213 8.24534715,3.70473754 8.57516103,3.32957424 C8.66939357,3.28267883 8.76362611,3.28267883 8.81074238,3.28267883 C8.85785865,3.28267883 8.90497492,3.32957424 8.95209119,3.42336507 C8.95209119,3.42336507 8.95209119,3.42336507 8.95209119,3.42336507 C8.99920746,3.70473754 8.85785865,4.07990083 8.71650984,4.31437789 Z" id="Shape"></path>
                </g>
            </g>
        </g>
    </g>
</svg>