<?xml version="1.0" encoding="UTF-8"?>
<svg width="24px" height="18px" viewBox="0 0 24 18" version="1.1" xmlns="http://www.w3.org/2000/svg" xmlns:xlink="http://www.w3.org/1999/xlink">
    <!-- Generator: Sketch 46.2 (44496) - http://www.bohemiancoding.com/sketch -->
    <title>Group</title>
    <desc>Created with Sketch.</desc>
    <defs></defs>
    <g id="Page-1" stroke="none" stroke-width="1" fill="none" fill-rule="evenodd">
        <g id="1.-PDP-Normal-State" transform="translate(-16.000000, -1047.000000)" fill-rule="nonzero" fill="#D4D4D4">
            <g id="Group-33" transform="translate(0.000000, 996.000000)">
                <g id="Group-23" transform="translate(16.000000, 49.000000)">
                    <g id="Group" transform="translate(0.000000, 2.000000)">
                        <g id="Shape">
                            <g>
                                <path d="M1.14645541,13.6933193 C1.14524651,13.6933193 1.14110994,1.14150627 1.14110994,1.14150627 L13.692923,1.14110994 L13.6929232,13.6933193 L7.41721461,13.6933193 L7.41721461,14.8344292 L16.5460941,14.8344292 L16.5460941,13.6933193 L14.8344292,13.6933193 L14.8344292,1.14150627 C14.8344292,0.515668457 14.322287,0 13.692923,0 L1.14150627,0 C0.515668457,0 0,0.5121422 0,1.14150627 L0,13.692923 C0,14.31986 0.515480383,14.8344292 1.14645541,14.8344292 L2.85277485,14.8344292 L2.85277485,13.6933193 L1.14645541,13.6933193 Z"></path>
                                <path d="M19.4014949,3.42332982 C19.5153443,3.42332982 19.7136193,3.53539318 19.7720482,3.63277492 L22.6116357,8.3654207 C22.7214032,8.54836649 22.8221988,8.91031611 22.8221988,9.12625357 L22.8221988,13.6959452 C22.8221988,13.6995246 21.1105339,13.6933193 21.1105339,13.6933193 L21.1105339,14.8344292 L22.8168534,14.8344292 C23.4592484,14.8344292 23.9633087,14.3291019 23.9633087,13.6959452 L23.9633087,9.12625357 C23.9633087,8.70294644 23.8060242,8.13814907 23.5901295,7.77832447 L20.750542,3.0456787 C20.485719,2.60430716 19.9158468,2.28221988 19.4014949,2.28221988 L14.2638742,2.28221988 L14.2638742,3.42332982 L19.4014949,3.42332982 Z"></path>
                                <path d="M18.2524974,4.56443976 C17.62544,4.56443976 17.1166491,5.06496838 17.1166491,5.69468464 L17.1166491,9.13974457 C17.1166491,9.76754131 17.6208445,10.2699895 18.2551331,10.2699895 L23.3927538,10.2699895 L23.3927538,9.12887952 L18.2551331,9.12887952 C18.250177,9.12887952 18.257759,5.69468464 18.257759,5.69468464 C18.257759,5.69940569 21.1105339,5.7055497 21.1105339,5.7055497 L21.1105339,4.56443976 L18.2524974,4.56443976 Z"></path>
                                <path d="M5.13499473,17.1166491 C6.71053877,17.1166491 7.98776958,15.8394183 7.98776958,14.2638742 C7.98776958,12.6883302 6.71053877,11.4110994 5.13499473,11.4110994 C3.55945069,11.4110994 2.28221988,12.6883302 2.28221988,14.2638742 C2.28221988,15.8394183 3.55945069,17.1166491 5.13499473,17.1166491 Z M5.13499473,15.9755392 C6.08032115,15.9755392 6.84665964,15.2092006 6.84665964,14.2638742 C6.84665964,13.3185478 6.08032115,12.5522093 5.13499473,12.5522093 C4.18966831,12.5522093 3.42332982,13.3185478 3.42332982,14.2638742 C3.42332982,15.2092006 4.18966831,15.9755392 5.13499473,15.9755392 Z"></path>
                                <path d="M18.828314,17.1166491 C20.4038581,17.1166491 21.6810889,15.8394183 21.6810889,14.2638742 C21.6810889,12.6883302 20.4038581,11.4110994 18.828314,11.4110994 C17.2527699,11.4110994 15.9755392,12.6883302 15.9755392,14.2638742 C15.9755392,15.8394183 17.2527699,17.1166491 18.828314,17.1166491 Z M18.828314,15.9755392 C19.7736404,15.9755392 20.5399789,15.2092006 20.5399789,14.2638742 C20.5399789,13.3185478 19.7736404,12.5522093 18.828314,12.5522093 C17.8829876,12.5522093 17.1166491,13.3185478 17.1166491,14.2638742 C17.1166491,15.2092006 17.8829876,15.9755392 18.828314,15.9755392 Z"></path>
                            </g>
                        </g>
                    </g>
                </g>
            </g>
        </g>
    </g>
</svg>