<?xml version="1.0" encoding="UTF-8"?>
<svg width="24px" height="21px" viewBox="0 0 24 21" version="1.1" xmlns="http://www.w3.org/2000/svg" xmlns:xlink="http://www.w3.org/1999/xlink">
    <!-- Generator: Sketch 46.2 (44496) - http://www.bohemiancoding.com/sketch -->
    <title>Group 7</title>
    <desc>Created with Sketch.</desc>
    <defs></defs>
    <g id="Page-1" stroke="none" stroke-width="1" fill="none" fill-rule="evenodd">
        <g id="2.-Listing-Page---Category---Full-Length" transform="translate(-328.000000, -374.000000)" fill="#EB3840">
            <g id="TI---2" transform="translate(181.000000, 166.000000)">
                <g id="Group">
                    <g id="Group-7" transform="translate(147.000000, 208.000000)">
                        <g>
                            <path d="M6.3526898,3.31973798e-14 C4.72631988,3.31973798e-14 3.09834886,0.627465158 1.85852885,1.88892184 C-0.621081871,4.41184103 -0.617936862,8.51688174 1.85852885,11.0415092 L11.3918519,20.7598605 C11.708926,21.0800465 12.2809746,21.0800465 12.5980487,20.7598605 C15.7785105,17.5239239 18.9598586,14.2956963 22.1402919,11.0597596 C24.6199027,8.53685503 24.6199027,4.43008857 22.1402919,1.90717229 C19.660681,-0.615746908 15.63161,-0.615781948 13.1519705,1.90717229 L12.0083309,3.07520125 L10.8468505,1.88892184 C9.60700215,0.627468078 7.97905973,0 6.3526898,0 L6.3526898,3.31973798e-14 Z M9.63173336,3.12995261 L11.4007723,4.92762218 C11.7178464,5.24779644 12.289895,5.24779644 12.606969,4.92762218 L14.3670876,3.14820306 C16.1944808,1.28890536 19.0978102,1.28893456 20.9251747,3.14820306 C22.7525393,5.00747448 22.7525393,7.95035849 20.9251747,9.80962699 C17.9462508,12.8405658 14.9783916,15.8765067 11.9994105,18.9074542 L3.07364625,9.80048717 C1.24736811,7.9387074 1.23736127,4.98922111 3.06478304,3.12995261 C5.00925633,1.33433293 7.83559013,1.25795551 9.63173336,3.12995261 Z" id="Shape" fill-rule="nonzero"></path>
                            <path d="M2,3 L5.70224173,1.22587807 C6.82361444,1.51541283 7.63045129,1.75321508 8.12275229,1.93928482 C9.7548246,2.55614173 11.0531653,3.1974363 12.0187549,3.29868466 C13.1430208,3.41657126 14.5920489,1.23350875 18.4561873,1.03443635 C19.0936807,1.00159401 20.4822059,1.65678189 22.6217628,3 C22.8199677,4.33301132 22.9190701,5.33301132 22.9190701,6 C22.9190701,6.66698868 22.8199677,7.66698868 22.6217628,9 C18.0096899,15.7535069 14.475354,19.1302604 12.0187549,19.1302604 C9.56215586,19.1302604 6.22257089,15.7535069 2,9 L1.11843973,6.25654104 L2,3 Z" id="Rectangle-7"></path>
                        </g>
                    </g>
                </g>
            </g>
        </g>
    </g>
</svg>