<?xml version="1.0" encoding="UTF-8"?>
<svg width="26px" height="26px" viewBox="0 0 26 26" version="1.1" xmlns="http://www.w3.org/2000/svg" xmlns:xlink="http://www.w3.org/1999/xlink">
    <!-- Generator: Sketch 46.2 (44496) - http://www.bohemiancoding.com/sketch -->
    <title>Group 4</title>
    <desc>Created with Sketch.</desc>
    <defs>
        <filter x="-1.8%" y="-10.2%" width="103.6%" height="124.1%" filterUnits="objectBoundingBox" id="filter-1">
            <feOffset dx="0" dy="1" in="SourceAlpha" result="shadowOffsetOuter1"></feOffset>
            <feGaussianBlur stdDeviation="2" in="shadowOffsetOuter1" result="shadowBlurOuter1"></feGaussianBlur>
            <feColorMatrix values="0 0 0 0 0   0 0 0 0 0   0 0 0 0 0  0 0 0 0.2 0" type="matrix" in="shadowBlurOuter1" result="shadowMatrixOuter1"></feColorMatrix>
            <feMerge>
                <feMergeNode in="shadowMatrixOuter1"></feMergeNode>
                <feMergeNode in="SourceGraphic"></feMergeNode>
            </feMerge>
        </filter>
    </defs>
    <g id="Page-1" stroke="none" stroke-width="1" fill="none" fill-rule="evenodd">
        <g id="10.-Header-on-scroll" transform="translate(-322.000000, -12.000000)">
            <g id="Group-38">
                <g id="Group-24" filter="url(#filter-1)">
                    <g id="Group-4" transform="translate(323.000000, 12.000000)">
                        <g id="Group-8">
                            <rect id="Rectangle-3" x="0" y="0" width="24" height="24"></rect>
                            <path d="M11.9323955,3 C9.89964929,3 8.2456809,4.65572759 8.2456809,6.69060533 L8.2456809,8.56930393 L6.82060317,8.56930393 C5.70761117,8.56930393 4.65749231,9.53036618 4.42854701,10.7626477 L3.03687247,18.5277063 C2.92354206,19.1415105 3.07337459,19.7350807 3.45992464,20.2012567 C3.87982323,20.7078508 4.54267202,20.9992294 5.27455205,21 L18.7221627,21 C19.4556071,21 20.1200203,20.7086462 20.5414833,20.2005109 C20.9280085,19.734335 21.0762518,19.1399445 20.9629462,18.5323547 L19.5698066,10.7580491 C19.3408365,9.53044076 18.2906679,8.56930393 17.1761115,8.56930393 L15.6191593,8.56930393 L15.6191593,6.69060533 C15.6191593,4.65572759 13.9651412,3 11.9323955,3 Z M11.9323955,4.55393647 C13.1106195,4.55393647 14.0668506,5.51194126 14.0668506,6.69060533 L14.0668506,8.56930393 L9.7979648,8.56930393 L9.7979648,6.69060533 C9.7979648,5.51194126 10.7557359,4.55393647 11.9323955,4.55393647 Z M6.82219238,10.1224947 L8.2456809,10.1224947 L8.2456809,11.7409113 C8.2456809,12.1705715 8.59260007,12.5178793 9.02181043,12.5178793 C9.45104562,12.5178793 9.7979648,12.1705715 9.7979648,11.7409113 L9.7979648,10.1224947 L14.0668506,10.1224947 L14.0668506,11.7409113 C14.0668506,12.1705715 14.4137697,12.5178793 14.8429801,12.5178793 C15.2721905,12.5178793 15.6191593,12.1705715 15.6191593,11.7409113 L15.6191593,10.1224947 L17.1777007,10.1224947 C17.5052266,10.1224947 17.9444936,10.5156147 18.0415098,11.0369493 L19.4362138,18.8128457 C19.4649686,18.9674589 19.4347239,19.1010923 19.346945,19.2083024 C19.2212486,19.3598083 18.993818,19.4468341 18.7221627,19.4468341 L5.27614125,19.4468341 C5.00605036,19.4468341 4.77854528,19.3590377 4.65284885,19.2083024 C4.56516925,19.1010923 4.53487497,18.967434 4.56358004,18.8066065 L5.95679404,11.0416225 C6.05381024,10.5156147 6.4930773,10.1224947 6.82219238,10.1224947 Z" id="Shape" fill="#616161" fill-rule="nonzero"></path>
                        </g>
                    </g>
                </g>
            </g>
        </g>
    </g>
</svg>