<?xml version="1.0" encoding="UTF-8"?>
<svg width="43px" height="43px" viewBox="0 0 43 43" version="1.1" xmlns="http://www.w3.org/2000/svg" xmlns:xlink="http://www.w3.org/1999/xlink">
    <!-- Generator: Sketch 46.2 (44496) - http://www.bohemiancoding.com/sketch -->
    <title>Group 6</title>
    <desc>Created with Sketch.</desc>
    <defs></defs>
    <g id="Page-1" stroke="none" stroke-width="1" fill="none" fill-rule="evenodd">
        <g id="9.-PDP-CTA-on-Release" transform="translate(-16.000000, -442.000000)">
            <g id="Group-6" transform="translate(16.000000, 442.000000)">
                <circle id="Oval" fill="#FFFFFF" cx="21.5" cy="21.5" r="21.5"></circle>
                <path d="M21.3148455,10.7824666 C20.2593498,13.791195 19.2017473,16.7999234 18.1441448,19.8065508 C17.5879554,21.3865534 17.0170186,22.9602528 16.4692563,24.5423565 C16.254365,25.1600703 15.9109602,25.6391136 15.2346845,25.7735819 C14.5499817,25.9080503 14.0675296,25.5109485 13.7746874,24.996187 C13.0288881,23.6809189 12.2472735,22.3635497 11.6868705,20.9621378 C11.4319504,20.3234133 11.0906524,19.8107529 10.6692968,19.3926405 L18.6666257,11.9947824 C18.7782849,11.8918301 18.7846052,11.7195426 18.6813731,11.6081861 C18.578141,11.4968295 18.4053852,11.4905263 18.293726,11.5934786 L10.2542616,19.0291558 C9.84976022,18.7139957 9.38626909,18.4597666 8.86589495,18.2454577 C7.75983656,17.7874251 6.68959339,17.2348443 5.621457,16.6906679 C4.91779319,16.3313854 4.27943949,15.8880602 4.30050727,14.8564361 C4.28365304,14.2177117 4.75978485,13.854227 5.37075043,13.633615 C6.94872707,13.0621246 8.53302404,12.5053418 10.1194278,11.9548622 C13.1384405,10.9085306 16.1637736,9.87900765 19.1785727,8.82006972 C19.8422077,8.58685125 20.4889886,8.4292712 21.0641389,8.93352736 C21.6540367,9.45459205 21.5465911,10.1269336 21.3148455,10.7824666 Z" id="Shape" fill="#8BC34A" fill-rule="nonzero"></path>
                <path d="M15.0901333,25.8 L13.9205333,25.8 L12.6563333,23.6586 L11.6501333,23.6586 L11.6501333,25.8 L10.6439333,25.8 L10.6439333,20.0638 L13.1637333,20.0638 C14.2989333,20.0638 15.0471333,20.7948 15.0471333,21.8612 C15.0471333,22.876 14.3763333,23.435 13.6797333,23.5468 L15.0901333,25.8 Z M13.0347333,22.7728 C13.6023333,22.7728 14.0151333,22.4116 14.0151333,21.8526 C14.0151333,21.3022 13.6023333,20.9496 13.0347333,20.9496 L11.6501333,20.9496 L11.6501333,22.7728 L13.0347333,22.7728 Z M19.9835333,25.8 L19.9835333,24.9142 L17.0595333,24.9142 L17.0595333,23.3146 L19.9233333,23.3146 L19.9233333,22.4288 L17.0595333,22.4288 L17.0595333,20.9496 L19.9835333,20.9496 L19.9835333,20.0638 L16.0533333,20.0638 L16.0533333,25.8 L19.9835333,25.8 Z M26.1841333,25.8 L25.0403333,25.8 L24.6189333,24.6906 L21.9873333,24.6906 L21.5659333,25.8 L20.4221333,25.8 L22.6753333,20.0638 L23.9309333,20.0638 L26.1841333,25.8 Z M24.3351333,23.8048 L23.3031333,21.07 L22.2711333,23.8048 L24.3351333,23.8048 Z M28.9447333,25.8 L26.8033333,25.8 L26.8033333,20.0638 L28.9361333,20.0638 C30.7335333,20.0638 31.9375333,21.2506 31.9375333,22.9276 C31.9375333,24.6218 30.7335333,25.8 28.9447333,25.8 Z M28.9361333,24.9142 C30.1831333,24.9142 30.9055333,24.0198 30.9055333,22.9276 C30.9055333,21.8268 30.2175333,20.9496 28.9447333,20.9496 L27.8095333,20.9496 L27.8095333,24.9142 L28.9361333,24.9142 Z M35.5495333,25.8 L35.5495333,23.4178 L37.7683333,20.0638 L36.6159333,20.0638 L35.0421333,22.5148 L33.4683333,20.0638 L32.3159333,20.0638 L34.5433333,23.4178 L34.5433333,25.8 L35.5495333,25.8 Z" id="READY" fill="#212121"></path>
                <path d="M21.93,32.3532 C23.4694,32.3532 24.1488,31.5276 24.1488,30.573 C24.1488,28.4402 20.812,29.1024 20.812,28.0274 C20.812,27.606 21.1904,27.3136 21.7752,27.3136 C22.3772,27.3136 22.9878,27.52 23.4436,27.9758 L24.0112,27.2276 C23.4866,26.7116 22.7556,26.4192 21.8698,26.4192 C20.6056,26.4192 19.78,27.1502 19.78,28.1048 C19.78,30.2118 23.1168,29.4636 23.1168,30.6676 C23.1168,31.0546 22.7986,31.4588 21.973,31.4588 C21.1732,31.4588 20.5454,31.0804 20.1584,30.659 L19.5908,31.4416 C20.1068,31.9748 20.8722,32.3532 21.93,32.3532 Z M30.0656,32.25 L30.0656,26.5138 L29.0594,26.5138 L29.0594,28.853 L26.0752,28.853 L26.0752,26.5138 L25.069,26.5138 L25.069,32.25 L26.0752,32.25 L26.0752,29.7388 L29.0594,29.7388 L29.0594,32.25 L30.0656,32.25 Z M32.293,32.25 L32.293,26.5138 L31.2868,26.5138 L31.2868,32.25 L32.293,32.25 Z M34.5204,32.25 L33.5142,32.25 L33.5142,26.5138 L36.0426,26.5138 C37.2466,26.5138 37.9088,27.3308 37.9088,28.3112 C37.9088,29.283 37.238,30.1 36.0426,30.1 L34.5204,30.1 L34.5204,32.25 Z M35.905,29.2142 C36.4726,29.2142 36.8768,28.853 36.8768,28.3112 C36.8768,27.7608 36.4726,27.3996 35.905,27.3996 L34.5204,27.3996 L34.5204,29.2142 L35.905,29.2142 Z" id="SHIP" fill="#212121"></path>
                <path d="M11.4695333,32.3532 C11.7103333,32.3532 11.9253333,32.2758 12.0801333,32.1554 L12.0113333,31.6394 C11.9253333,31.7082 11.7705333,31.777 11.6157333,31.777 C11.3405333,31.777 11.2029333,31.6394 11.2029333,31.39 C11.2029333,31.3298 11.2029333,31.2696 11.2115333,31.2266 L11.7877333,28.6638 L12.6305333,28.6638 L12.7595333,28.0962 L11.9081333,28.0962 L12.1575333,26.961 L11.5211333,26.961 L11.2717333,28.0962 L10.5837333,28.0962 L10.4547333,28.6638 L11.1427333,28.6638 L10.5407333,31.3556 C10.5235333,31.4502 10.5149333,31.5534 10.5149333,31.5964 C10.5149333,32.121 10.8847333,32.3532 11.4695333,32.3532 Z M14.8063333,32.3532 C13.6195333,32.3532 12.9057333,31.605 12.9057333,30.5042 C12.9057333,29.197 13.8861333,27.993 15.2191333,27.993 C16.4059333,27.993 17.1197333,28.7412 17.1197333,29.8334 C17.1197333,31.1492 16.1393333,32.3532 14.8063333,32.3532 Z M14.8235333,31.777 C15.7695333,31.777 16.4403333,30.8396 16.4403333,29.8592 C16.4403333,29.0766 15.9845333,28.5692 15.2019333,28.5692 C14.2645333,28.5692 13.5851333,29.5066 13.5851333,30.487 C13.5851333,31.2696 14.0409333,31.777 14.8235333,31.777 Z" id="to" fill="#212121"></path>
            </g>
        </g>
    </g>
</svg>