<?xml version="1.0" encoding="UTF-8"?>
<svg width="20px" height="20px" viewBox="0 0 20 20" version="1.1" xmlns="http://www.w3.org/2000/svg" xmlns:xlink="http://www.w3.org/1999/xlink">
    <!-- Generator: Sketch 46.2 (44496) - http://www.bohemiancoding.com/sketch -->
    <title>Shape</title>
    <desc>Created with Sketch.</desc>
    <defs></defs>
    <g id="Page-1" stroke="none" stroke-width="1" fill="none" fill-rule="evenodd">
        <g id="1.-PDP-Normal-State" transform="translate(-16.000000, -1084.000000)" fill-rule="nonzero" fill="#D4D4D4">
            <g id="Group-33" transform="translate(0.000000, 996.000000)">
                <g id="Group-29" transform="translate(16.000000, 87.000000)">
                    <path d="M19.0920749,6.80009193 C18.0047302,4.42879251 16.0230005,2.5919299 13.5364161,1.63594357 C11.0493804,0.717067826 8.3305673,0.794400053 5.88234915,1.86505141 C2.46346486,3.39547396 0.209560477,6.60920577 0.0150210185,10.2815977 C-0.0233452321,10.4731505 0.0150210185,10.6255928 0.0933333064,10.7793683 C0.0933333064,10.7793683 0.0933333064,10.81759 0.132150925,10.81759 L0.132150925,10.8558117 C0.287872765,11.1618073 0.598639395,11.3526935 0.987492629,11.3526935 C1.53093928,11.3909152 2.03624537,10.9706989 2.07483731,10.3964849 C2.23010778,7.48919318 4.01752369,4.9256743 6.73746517,3.7401357 C10.7004732,1.94149476 15.4402849,3.7016918 17.2274751,7.64207989 C19.0144397,11.5829124 17.2274751,16.2117351 13.2644671,17.9717099 C11.6327731,18.6983662 9.80676522,18.8514751 8.09698454,18.43037 L8.21434013,18.2394839 C8.33079299,18.0481533 8.33079299,17.7799349 8.17461978,17.5886043 C8.05794124,17.3977181 7.86385315,17.2832753 7.63117312,17.2832753 L4.79500447,17.3594964 C4.56142171,17.3594964 4.36733362,17.4743837 4.25065508,17.7032693 C4.13397654,17.8952666 4.13397654,18.1245966 4.25065508,18.315705 L5.72730436,20.6876711 C5.84375722,20.8792239 6.07711429,21.0323328 6.31002,20.9941111 C6.5431514,20.9941111 6.73746517,20.8792239 6.85414371,20.6876711 L7.08682373,20.2670104 C8.05794124,20.573006 9.10737104,20.726115 10.1173062,20.6876711 C11.5163202,20.6876711 12.8372476,20.3821199 14.0809912,19.8459053 C16.5283066,18.7370323 18.3938091,16.7855047 19.3256577,14.336873 C20.2965495,11.8882414 20.2193656,9.21027968 19.0920749,6.80009193 Z" id="Shape"></path>
                </g>
            </g>
        </g>
    </g>
</svg>