<?xml version="1.0" encoding="UTF-8"?>
<svg width="17px" height="20px" viewBox="0 0 17 20" version="1.1" xmlns="http://www.w3.org/2000/svg" xmlns:xlink="http://www.w3.org/1999/xlink">
    <!-- Generator: Sketch 45.1 (43504) - http://www.bohemiancoding.com/sketch -->
    <title>Shape</title>
    <desc>Created with Sketch.</desc>
    <defs></defs>
    <g id="Page-1" stroke="none" stroke-width="1" fill="none" fill-rule="evenodd">
        <g id="1.-PDP-Normal-State" transform="translate(-82.000000, -2084.000000)" fill="#BB4225">
            <g id="Group-28" transform="translate(0.000000, 2005.000000)">
                <g id="Group-4" transform="translate(70.000000, 69.000000)">
                    <g id="Group-27">
                        <g id="Group-26" transform="translate(12.000000, 10.000000)">
                            <path d="M14.1666667,14.1365462 C13.4488889,14.1365462 12.8066667,14.437751 12.3155556,14.9096386 L5.58166667,10.7429719 C5.62888889,10.5120482 5.66666667,10.2811245 5.66666667,10.0401606 C5.66666667,9.79919679 5.62888889,9.56827309 5.58166667,9.3373494 L12.24,5.21084337 C12.75,5.71285141 13.4205556,6.02409639 14.1666667,6.02409639 C15.7344444,6.02409639 17,4.67871486 17,3.01204819 C17,1.34538153 15.7344444,1.77635684e-15 14.1666667,1.77635684e-15 C12.5988889,1.77635684e-15 11.3333333,1.34538153 11.3333333,3.01204819 C11.3333333,3.25301205 11.3711111,3.48393574 11.4183333,3.71485944 L4.76,7.84136546 C4.25,7.33935743 3.57944444,7.02811245 2.83333333,7.02811245 C1.26555556,7.02811245 0,8.37349398 0,10.0401606 C0,11.7068273 1.26555556,13.0522088 2.83333333,13.0522088 C3.57944444,13.0522088 4.25,12.7409639 4.76,12.2389558 L11.4844444,16.4156627 C11.4372222,16.626506 11.4088889,16.8473896 11.4088889,17.0682731 C11.4088889,18.684739 12.6461111,20 14.1666667,20 C15.6872222,20 16.9244444,18.684739 16.9244444,17.0682731 C16.9244444,15.4518072 15.6872222,14.1365462 14.1666667,14.1365462 L14.1666667,14.1365462 Z" id="Shape"></path>
                        </g>
                    </g>
                </g>
            </g>
        </g>
    </g>
</svg>