<?xml version="1.0" encoding="UTF-8"?>
<svg width="17px" height="20px" viewBox="0 0 17 20" version="1.1" xmlns="http://www.w3.org/2000/svg" xmlns:xlink="http://www.w3.org/1999/xlink">
    <!-- Generator: Sketch 46.2 (44496) - http://www.bohemiancoding.com/sketch -->
    <title>Shape</title>
    <desc>Created with Sketch.</desc>
    <defs></defs>
    <g id="V1" stroke="none" stroke-width="1" fill="none" fill-rule="evenodd">
        <g id="PDP---V1" transform="translate(-117.000000, -2207.000000)" fill="#757575">
            <g id="09-Share-Component" transform="translate(0.000000, 2139.000000)">
                <g id="Group-13" transform="translate(105.000000, 58.000000)">
                    <path d="M26.1666667,24.1365462 C25.4488889,24.1365462 24.8066667,24.437751 24.3155556,24.9096386 L17.5816667,20.7429719 C17.6288889,20.5120482 17.6666667,20.2811245 17.6666667,20.0401606 C17.6666667,19.7991968 17.6288889,19.5682731 17.5816667,19.3373494 L24.24,15.2108434 C24.75,15.7128514 25.4205556,16.0240964 26.1666667,16.0240964 C27.7344444,16.0240964 29,14.6787149 29,13.0120482 C29,11.3453815 27.7344444,10 26.1666667,10 C24.5988889,10 23.3333333,11.3453815 23.3333333,13.0120482 C23.3333333,13.253012 23.3711111,13.4839357 23.4183333,13.7148594 L16.76,17.8413655 C16.25,17.3393574 15.5794444,17.0281124 14.8333333,17.0281124 C13.2655556,17.0281124 12,18.373494 12,20.0401606 C12,21.7068273 13.2655556,23.0522088 14.8333333,23.0522088 C15.5794444,23.0522088 16.25,22.7409639 16.76,22.2389558 L23.4844444,26.4156627 C23.4372222,26.626506 23.4088889,26.8473896 23.4088889,27.0682731 C23.4088889,28.684739 24.6461111,30 26.1666667,30 C27.6872222,30 28.9244444,28.684739 28.9244444,27.0682731 C28.9244444,25.4518072 27.6872222,24.1365462 26.1666667,24.1365462 L26.1666667,24.1365462 Z" id="Shape"></path>
                </g>
            </g>
        </g>
    </g>
</svg>