<?xml version="1.0" encoding="UTF-8"?>
<svg width="24px" height="21px" viewBox="0 0 24 21" version="1.1" xmlns="http://www.w3.org/2000/svg" xmlns:xlink="http://www.w3.org/1999/xlink">
    <!-- Generator: Sketch 46.2 (44496) - http://www.bohemiancoding.com/sketch -->
    <title>Shape</title>
    <desc>Created with Sketch.</desc>
    <defs></defs>
    <g id="Page-1" stroke="none" stroke-width="1" fill="none" fill-rule="evenodd">
        <g id="2.-Listing-Page---Category---Full-Length" transform="translate(-147.000000, -374.000000)" fill-rule="nonzero" fill="#FFFFFF">
            <g id="Group-5" transform="translate(0.000000, 166.000000)">
                <g id="TI--1">
                    <path d="M153.35269,208 C151.72632,208 150.098349,208.627465 148.858529,209.888922 C146.378918,212.411841 146.382063,216.516882 148.858529,219.041509 L158.391852,228.759861 C158.708926,229.080046 159.280975,229.080046 159.598049,228.759861 C162.77851,225.523924 165.959859,222.295696 169.140292,219.05976 C171.619903,216.536855 171.619903,212.430089 169.140292,209.907172 C166.660681,207.384253 162.63161,207.384218 160.151971,209.907172 L159.008331,211.075201 L157.84685,209.888922 C156.607002,208.627468 154.97906,208 153.35269,208 L153.35269,208 Z M156.631733,211.129953 L158.400772,212.927622 C158.717846,213.247796 159.289895,213.247796 159.606969,212.927622 L161.367088,211.148203 C163.194481,209.288905 166.09781,209.288935 167.925175,211.148203 C169.752539,213.007474 169.752539,215.950358 167.925175,217.809627 C164.946251,220.840566 161.978392,223.876507 158.99941,226.907454 L150.073646,217.800487 C148.247368,215.938707 148.237361,212.989221 150.064783,211.129953 C152.009256,209.334333 154.83559,209.257956 156.631733,211.129953 Z" id="Shape"></path>
                </g>
            </g>
        </g>
    </g>
</svg>