<?xml version="1.0" encoding="UTF-8"?>
<svg width="24px" height="21px" viewBox="0 0 24 21" version="1.1" xmlns="http://www.w3.org/2000/svg" xmlns:xlink="http://www.w3.org/1999/xlink">
    <!-- Generator: Sketch 46.2 (44496) - http://www.bohemiancoding.com/sketch -->
    <title>Group 32</title>
    <desc>Created with Sketch.</desc>
    <defs></defs>
    <g id="Page-1" stroke="none" stroke-width="1" fill="none" fill-rule="evenodd">
        <g id="1.-PDP-Normal-State" transform="translate(-312.000000, -522.000000)">
            <g id="Group-5" transform="translate(0.000000, 502.000000)">
                <g id="Group-32" transform="translate(312.000000, 18.000000)">
                    <rect id="Rectangle-14" x="0" y="0" width="24" height="24"></rect>
                    <path d="M6.3526898,2 C4.72631988,2 3.09834886,2.62746516 1.85852885,3.88892184 C-0.621081871,6.41184103 -0.617936862,10.5168817 1.85852885,13.0415092 L11.3918519,22.7598605 C11.708926,23.0800465 12.2809746,23.0800465 12.5980487,22.7598605 C15.7785105,19.5239239 18.9598586,16.2956963 22.1402919,13.0597596 C24.6199027,10.536855 24.6199027,6.43008857 22.1402919,3.90717229 C19.660681,1.38425309 15.63161,1.38421805 13.1519705,3.90717229 L12.0083309,5.07520125 L10.8468505,3.88892184 C9.60700215,2.62746808 7.97905973,2 6.3526898,2 L6.3526898,2 Z M9.63173336,5.12995261 L11.4007723,6.92762218 C11.7178464,7.24779644 12.289895,7.24779644 12.606969,6.92762218 L14.3670876,5.14820306 C16.1944808,3.28890536 19.0978102,3.28893456 20.9251747,5.14820306 C22.7525393,7.00747448 22.7525393,9.95035849 20.9251747,11.809627 C17.9462508,14.8405658 14.9783916,17.8765067 11.9994105,20.9074542 L3.07364625,11.8004872 C1.24736811,9.9387074 1.23736127,6.98922111 3.06478304,5.12995261 C5.00925633,3.33433293 7.83559013,3.25795551 9.63173336,5.12995261 Z" id="Shape" fill="#757575" fill-rule="nonzero"></path>
                </g>
            </g>
        </g>
    </g>
</svg>