<?xml version="1.0" encoding="UTF-8"?>
<svg width="78px" height="78px" viewBox="0 0 78 78" version="1.1" xmlns="http://www.w3.org/2000/svg" xmlns:xlink="http://www.w3.org/1999/xlink">
    <!-- Generator: Sketch 46.2 (44496) - http://www.bohemiancoding.com/sketch -->
    <title>Group 2</title>
    <desc>Created with Sketch.</desc>
    <defs>
        <filter x="-24.2%" y="-20.8%" width="148.3%" height="148.3%" filterUnits="objectBoundingBox" id="filter-1">
            <feOffset dx="0" dy="2" in="SourceAlpha" result="shadowOffsetOuter1"></feOffset>
            <feGaussianBlur stdDeviation="4.5" in="shadowOffsetOuter1" result="shadowBlurOuter1"></feGaussianBlur>
            <feColorMatrix values="0 0 0 0 0   0 0 0 0 0   0 0 0 0 0  0 0 0 0.2 0" type="matrix" in="shadowBlurOuter1" result="shadowMatrixOuter1"></feColorMatrix>
            <feMerge>
                <feMergeNode in="shadowMatrixOuter1"></feMergeNode>
                <feMergeNode in="SourceGraphic"></feMergeNode>
            </feMerge>
        </filter>
    </defs>
    <g id="Page-1" stroke="none" stroke-width="1" fill="none" fill-rule="evenodd">
        <g id="1.-Header---Normal-State" transform="translate(-275.000000, -557.000000)">
            <g id="Group-2" filter="url(#filter-1)" transform="translate(284.000000, 564.000000)">
                <circle id="Oval" fill="#BB4225" cx="30" cy="30" r="30"></circle>
                <g id="search" transform="translate(21.000000, 21.000000)" fill="#FFFFFF">
                    <path d="M12.502,6.491 L11.708,6.491 L11.432,6.765 C12.407,7.902 13,9.376 13,10.991 C13,14.581 10.09,17.491 6.5,17.491 C2.91,17.491 0,14.581 0,10.991 C0,7.401 2.91,4.491 6.5,4.491 C8.115,4.491 9.588,5.083 10.725,6.057 L11.001,5.783 L11.001,4.991 L15.999,0 L17.49,1.491 L12.502,6.491 L12.502,6.491 Z M6.5,6.491 C4.014,6.491 2,8.505 2,10.991 C2,13.476 4.014,15.491 6.5,15.491 C8.985,15.491 11,13.476 11,10.991 C11,8.505 8.985,6.491 6.5,6.491 L6.5,6.491 Z" id="Shape" transform="translate(8.745000, 8.745500) scale(1, -1) translate(-8.745000, -8.745500) "></path>
                </g>
            </g>
        </g>
    </g>
</svg>