<?xml version="1.0" encoding="UTF-8"?>
<svg width="12px" height="18px" viewBox="0 0 12 18" version="1.1" xmlns="http://www.w3.org/2000/svg" xmlns:xlink="http://www.w3.org/1999/xlink">
    <!-- Generator: sketchtool 46.2 (44496) - http://www.bohemiancoding.com/sketch -->
    <title>CA4791CD-694C-4FC0-9AEB-E68CCD4EE5A7</title>
    <desc>Created with sketchtool.</desc>
    <defs></defs>
    <g id="Page-1" stroke="none" stroke-width="1" fill="none" fill-rule="evenodd">
        <g id="1.-Header-with-wishlist" transform="translate(-289.000000, -39.000000)">
            <g id="Group-15" transform="translate(283.000000, 36.000000)">
                <rect id="Rectangle-3" x="0" y="0" width="24" height="24"></rect>
                <path d="M16.4412811,20.252669 C16.6120996,20.3807829 16.8256228,20.4661922 17.0391459,20.4661922 C17.1886121,20.4661922 17.316726,20.4234875 17.4661922,20.3594306 C17.8078292,20.1886121 18,19.8683274 18,19.5053381 L18,5.45551601 C18,4.11032028 16.8896797,3 15.544484,3 L8.45551601,3 C7.11032028,3 6,4.11032028 6,5.45551601 L6,19.4839858 C6,19.8469751 6.21352313,20.1886121 6.53380783,20.3380783 C6.87544484,20.5088968 7.25978648,20.4661922 7.55871886,20.2313167 C7.58007117,20.2099644 7.60142349,20.1886121 7.6227758,20.1672598 L12,15.7900356 L16.3772242,20.1886121 C16.3985765,20.2099644 16.4199288,20.2313167 16.4412811,20.252669 Z M12,13.975089 C11.8078292,13.975089 11.6156584,14.0604982 11.4661922,14.1886121 L7.49466192,18.202847 L7.49466192,5.45551601 C7.49466192,4.92170819 7.92170819,4.49466192 8.45551601,4.49466192 L15.544484,4.49466192 C16.0782918,4.49466192 16.5053381,4.92170819 16.5053381,5.45551601 L16.5053381,18.202847 L12.5338078,14.2099644 C12.3843416,14.0604982 12.1921708,13.975089 12,13.975089 Z" id="Shape" fill="#FFFFFF" fill-rule="nonzero"></path>
            </g>
        </g>
    </g>
</svg>