<?xml version="1.0" encoding="UTF-8"?>
<svg width="24px" height="24px" viewBox="0 0 24 24" version="1.1" xmlns="http://www.w3.org/2000/svg" xmlns:xlink="http://www.w3.org/1999/xlink">
    <!-- Generator: Sketch 46.2 (44496) - http://www.bohemiancoding.com/sketch -->
    <title>Group 12</title>
    <desc>Created with Sketch.</desc>
    <defs></defs>
    <g id="Page-1" stroke="none" stroke-width="1" fill="none" fill-rule="evenodd">
        <g id="4.2.-My-Orders---Cancel-Order" transform="translate(-32.000000, -488.000000)">
            <g id="Group-17" transform="translate(16.000000, 445.000000)">
                <g id="Group-14" transform="translate(16.000000, 43.000000)">
                    <g id="Group-12">
                        <rect id="Rectangle-12" fill="#FFFFFF" x="0" y="0" width="24" height="24"></rect>
                        <path d="M6.62,10.79 C8.06,13.62 10.38,15.94 13.21,17.38 L15.41,15.18 C15.69,14.9 16.08,14.82 16.43,14.93 C17.55,15.3 18.75,15.5 20,15.5 C20.5522847,15.5 21,15.9477153 21,16.5 L21,20 C21,20.5522847 20.5522847,21 20,21 C10.6111593,21 3,13.3888407 3,4 C3,3.73478351 3.10535684,3.4804296 3.29289322,3.29289322 C3.4804296,3.10535684 3.73478351,3 4,3 L7.5,3 C8.05228475,3 8.5,3.44771525 8.5,4 C8.5,5.25 8.7,6.45 9.07,7.57 C9.18,7.92 9.1,8.31 8.82,8.59 L6.62,10.79 Z" id="Shape" fill="#D4D4D4" fill-rule="nonzero"></path>
                    </g>
                </g>
            </g>
        </g>
    </g>
</svg>