<?xml version="1.0" encoding="UTF-8"?>
<svg width="112px" height="96px" viewBox="0 0 112 96" version="1.1" xmlns="http://www.w3.org/2000/svg" xmlns:xlink="http://www.w3.org/1999/xlink">
    <!-- Generator: Sketch 46.2 (44496) - http://www.bohemiancoding.com/sketch -->
    <title>Shape</title>
    <desc>Created with Sketch.</desc>
    <defs></defs>
    <g id="Page-1" stroke="none" stroke-width="1" fill="none" fill-rule="evenodd">
        <g id="My-Orders---Empty" transform="translate(-124.000000, -158.000000)" fill-rule="nonzero" fill="#E0E0E0">
            <path d="M143.096402,192.977533 L129.286827,200.8534 L145.709024,210.031576 C145.751323,210.031576 145.812284,210.072506 145.89564,210.155605 L164.743842,220.388031 L178.24239,212.699448 L143.096402,192.977533 Z M143.096402,190.124856 L179.548701,169.287916 L164.930458,160.729887 L127.856106,181.814886 L143.096402,190.124856 Z M217.369516,231.736722 L216.871874,211.830002 L197.96271,222.868619 C197.713889,222.993889 197.484974,223.054663 197.277208,223.054663 C197.111742,223.054663 196.925126,222.992649 196.718604,222.868619 L180.792806,214.062531 L165.304934,222.992649 C165.138223,223.074508 164.951608,223.116678 164.745086,223.116678 C164.496265,223.116678 164.267349,223.095593 164.060828,223.054663 L146.643347,213.38037 L146.643347,231.612692 L179.673111,250.403147 L179.42429,216.853193 C179.42429,216.481105 179.568606,216.171031 179.859727,215.922973 C180.067493,215.715843 180.357369,215.612899 180.730601,215.612899 C181.062777,215.612899 181.373804,215.715843 181.66368,215.922973 C181.871446,216.130102 181.974707,216.440175 181.974707,216.853193 L182.100362,250.83725 L217.369516,231.736722 Z M231.801143,200.047209 L218.364801,192.109327 L183.281018,212.636193 L197.277208,220.326016 L217.24635,208.668493 C217.24635,208.626323 217.287405,208.585393 217.37076,208.543223 L231.801143,200.047209 Z M184.649534,169.287916 L218.425762,189.194636 L232.174375,181.256754 L198.085877,161.660108 L184.649534,169.287916 Z M198.085877,158.931461 C198.293642,158.931461 198.521314,158.972391 198.770135,159.056731 L235.346844,180.141729 C235.595666,180.306689 235.782281,180.533662 235.906692,180.823891 C236.031103,181.11288 236.031103,181.403108 235.906692,181.692097 C235.781037,181.938916 235.595666,182.146045 235.346844,182.312244 L220.913973,190.684229 L234.973613,198.992959 C235.22119,199.159158 235.40905,199.366287 235.532216,199.613106 C235.657871,199.902094 235.657871,200.212168 235.532216,200.543326 C235.407806,200.750455 235.22119,200.9365 234.973613,201.101459 L219.296636,210.279635 L219.856484,232.542913 C219.856484,232.748802 219.835334,232.955931 219.794278,233.16306 C219.627568,233.328019 219.442196,233.494218 219.234431,233.657937 L181.973463,253.87473 C181.807997,253.95783 181.600231,254 181.35141,254 C181.185944,254 180.999328,253.95907 180.791562,253.87473 L180.543985,253.812716 L180.418331,253.812716 C180.33622,253.771786 180.274014,253.730856 180.232959,253.688686 C180.190659,253.647756 180.149604,253.606827 180.107304,253.563416 L144.7747,233.346623 C144.609234,233.222594 144.422618,233.057635 144.214853,232.851746 C144.172553,232.685547 144.152647,232.478418 144.152647,232.231599 L143.967276,211.954032 L126.114358,201.969664 C125.824481,201.845635 125.657771,201.618661 125.616715,201.287503 C125.40895,200.998514 125.40895,200.708285 125.616715,200.419297 C125.657771,200.130308 125.803331,199.923179 126.052152,199.79915 L140.545985,191.613209 L124.745841,182.867896 C124.413665,182.702937 124.185994,182.495808 124.061583,182.247749 C123.979472,181.95876 123.979472,181.648687 124.061583,181.317528 C124.185994,181.07071 124.413665,180.863581 124.745841,180.697381 L164.371854,158.12527 C164.578376,158.04217 164.764992,158 164.930458,158 C165.138223,158 165.387045,158.04093 165.678165,158.12527 L182.036912,167.861578 L197.402863,159.05549 C197.651684,158.972391 197.878111,158.931461 198.085877,158.931461 Z" id="Shape"></path>
        </g>
    </g>
</svg>