<?xml version="1.0" encoding="UTF-8"?>
<svg width="27px" height="16px" viewBox="0 0 27 16" version="1.1" xmlns="http://www.w3.org/2000/svg" xmlns:xlink="http://www.w3.org/1999/xlink">
    <!-- Generator: Sketch 46.2 (44496) - http://www.bohemiancoding.com/sketch -->
    <title>Group 11</title>
    <desc>Created with Sketch.</desc>
    <defs></defs>
    <g id="Page-1" stroke="none" stroke-width="1" fill="none" fill-rule="evenodd">
        <g id="Saved-Cards" transform="translate(-31.000000, -112.000000)">
            <g id="Group-2" transform="translate(16.000000, 96.000000)">
                <g id="Group-11" transform="translate(15.000000, 16.000000)">
                    <path d="M16.4514484,8.19416086 C16.4514484,12.5054631 12.9567881,16 8.64560922,16 C4.33430698,16 0.8394,12.5054631 0.8394,8.19416086 C0.8394,3.88298197 4.33430698,0.388074999 8.64560922,0.388074999 C12.9567881,0.388074999 16.4514484,3.88298197 16.4514484,8.19416086" id="Fill-333-Copy" fill="#CC0000"></path>
                    <path d="M19.1256425,0.388074999 C17.108216,0.388074999 15.2706482,1.15327594 13.8850707,2.40858544 C13.6031935,2.6644337 13.3400671,2.94075969 13.0971716,3.23497286 L14.6743268,3.23497286 C14.8897131,3.49723583 15.088199,3.77294502 15.2694146,4.06173035 L12.5019605,4.06173035 C12.3364116,4.32707732 12.1859126,4.60278651 12.0521906,4.88848784 L15.7189378,4.88848784 C15.8442713,5.15605529 15.954555,5.43164112 16.0495421,5.71487526 L11.7215863,5.71487526 C11.6315336,5.98404638 11.5555439,6.25987893 11.4948509,6.54113931 L16.2760307,6.54113931 C16.3905086,7.07405372 16.4514484,7.62695242 16.4514484,8.19416086 C16.4514484,9.06076357 16.3102014,9.89492266 16.0495421,10.6739399 L11.7215863,10.6739399 C11.8165733,10.9569273 11.926857,11.2328832 12.0519438,11.5008208 L15.7189378,11.5008208 C15.584969,11.7857819 15.4352102,12.0617378 15.2686744,12.3274549 L12.5019605,12.3274549 C12.6824359,12.6153767 12.8812919,12.891456 13.0971716,13.1533489 L14.6738334,13.1533489 C14.4314314,13.4478087 14.1680581,13.7241347 13.8853174,13.979983 C15.2707716,15.2352925 17.108216,16 19.1256425,16 C23.436698,16 26.9314816,12.5054631 26.9314816,8.19416086 C26.9314816,3.88335205 23.436698,0.388074999 19.1256425,0.388074999" id="Fill-334-Copy" fill="#FF9900"></path>
                    <polyline id="Fill-344-Copy" fill="#FFFFFF" points="4.97972554 10.2485953 4.13236696 10.2485953 4.61803455 7.20506185 3.53407184 10.2485953 2.95637782 10.2485953 2.88507585 7.2227023 2.37473628 10.2485953 1.58153266 10.2485953 2.24409824 6.28948528 3.46276987 6.28948528 3.49681718 8.74039813 4.31913372 6.28948528 5.63525961 6.28948528 4.97972554 10.2485953"></polyline>
                    <path d="M7.06660356,8.81429066 C6.97778449,8.80392843 6.93855607,8.80109116 6.87749296,8.80109116 C6.39712984,8.80109116 6.154111,8.96565315 6.154111,9.29095299 C6.154111,9.49116598 6.27278314,9.61933683 6.45794623,9.61933683 C6.80310699,9.61933683 7.05192374,9.29070627 7.06660356,8.81429066 L7.06660356,8.81429066 Z M7.68290921,10.2485953 L6.98086849,10.2485953 L6.99690527,9.91515367 C6.78275262,10.1785269 6.49692793,10.3044772 6.10871458,10.3044772 C5.64944598,10.3044772 5.33463173,9.94550018 5.33463173,9.42467503 C5.33463173,8.64035332 5.88234932,8.18367527 6.82247448,8.18367527 C6.91857178,8.18367527 7.04168488,8.19243382 7.16788197,8.20871732 C7.19403425,8.10213444 7.2009424,8.05686138 7.2009424,7.99925235 C7.2009424,7.78620994 7.05340406,7.70688958 6.65754241,7.70688958 C6.2428067,7.70195519 5.90097665,7.80520736 5.76034646,7.85122057 C5.76935173,7.79792913 5.87790837,7.1272218 5.87790837,7.1272218 C6.30016902,7.00336855 6.57871549,6.95661518 6.89217278,6.95661518 C7.61987234,6.95661518 8.00524841,7.28364205 8.00463161,7.90093457 C8.00598857,8.06636009 7.97872605,8.27101403 7.93604355,8.53895155 C7.86239774,9.00488158 7.70449718,10.0055764 7.68290921,10.2485953 L7.68290921,10.2485953 Z" id="Fill-345-Copy" fill="#FFFFFF"></path>
                    <path d="M19.0494061,6.39606817 L18.9106263,7.25526929 C18.6080247,7.10316664 18.3888143,7.04161009 18.1536905,7.04161009 C17.520978,7.04161009 17.0771294,7.6531047 17.0771294,8.52525861 C17.0771294,9.12614428 17.3754134,9.48919222 17.8681125,9.48919222 C18.0768373,9.48919222 18.3073968,9.42467503 18.5877937,9.28614196 L18.4388984,10.1883957 C18.1269214,10.2733906 17.9249814,10.3044772 17.6901043,10.3044772 C16.7776117,10.3044772 16.209293,9.64844974 16.209293,8.59508026 C16.209293,7.17964972 16.9949717,6.19042735 18.1180395,6.19042735 C18.4881189,6.19042735 18.9251828,6.34721768 19.0494061,6.39606817" id="Fill-346-Copy" fill="#FFFFFF"></path>
                    <path d="M20.4164796,8.81429066 C20.328154,8.80392843 20.2888022,8.80109116 20.2278624,8.80109116 C19.747746,8.80109116 19.5046038,8.96565315 19.5046038,9.29095299 C19.5046038,9.49116598 19.6231526,9.61933683 19.8081923,9.61933683 C20.1532297,9.61933683 20.4022932,9.29070627 20.4164796,8.81429066 L20.4164796,8.81429066 Z M21.0332787,10.2485953 L20.331238,10.2485953 L20.3471514,9.91515367 C20.1329987,10.1785269 19.847174,10.3044772 19.4593308,10.3044772 C18.9995687,10.3044772 18.6851246,9.94550018 18.6851246,9.42467503 C18.6851246,8.64035332 19.2323487,8.18367527 20.1727206,8.18367527 C20.2688179,8.18367527 20.3916843,8.19243382 20.517758,8.20871732 C20.5440336,8.10213444 20.5509418,8.05686138 20.5509418,7.99925235 C20.5509418,7.78620994 20.4037735,7.70688958 20.0076652,7.70688958 C19.5932995,7.70195519 19.2515928,7.80520736 19.1107159,7.85122057 C19.1195978,7.79792913 19.2282778,7.1272218 19.2282778,7.1272218 C19.6505385,7.00336855 19.9288382,6.95661518 20.2422955,6.95661518 C20.9699951,6.95661518 21.3557412,7.28364205 21.3547544,7.90093457 C21.3564814,8.06636009 21.3289722,8.27101403 21.2862897,8.53895155 C21.2128906,9.00488158 21.05499,10.0055764 21.0332787,10.2485953 L21.0332787,10.2485953 Z" id="Fill-347-Copy" fill="#FFFFFF"></path>
                    <path d="M11.4490844,10.1997448 C11.2172913,10.2727738 11.0363225,10.3044772 10.8404271,10.3044772 C10.4071874,10.3044772 10.1705833,10.0554138 10.1705833,9.59737878 C10.164662,9.45452811 10.2331267,9.08074786 10.2870349,8.73891781 C10.3357621,8.4377965 10.6544005,6.54150939 10.6544005,6.54150939 L11.4968247,6.54150939 L11.3982602,7.02878067 L11.8307597,7.02878067 L11.7155416,7.80249344 L11.2816851,7.80249344 C11.1838608,8.41534501 11.0443409,9.17770868 11.0426138,9.27886373 C11.0426138,9.44539948 11.1315563,9.51744162 11.3330028,9.51744162 C11.4295936,9.51744162 11.5042263,9.50794291 11.5615886,9.48697174 L11.4490844,10.1997448" id="Fill-348-Copy" fill="#FFFFFF"></path>
                    <path d="M14.032239,10.1742093 C13.7427135,10.262905 13.4631802,10.304724 13.16761,10.3044772 C12.2244009,10.3038604 11.7331821,9.81103798 11.7331821,8.86807554 C11.7331821,7.76708917 12.3583696,6.95661518 13.2068385,6.95661518 C13.901971,6.95661518 14.3454496,7.41033258 14.3454496,8.12248881 C14.3454496,8.35847614 14.3146096,8.58878891 14.2418273,8.91408875 L12.5641338,8.91408875 C12.5072649,9.38125238 12.8064125,9.57616089 13.2962743,9.57616089 C13.5976424,9.57616089 13.8696508,9.51374082 14.1723757,9.37311063 L14.032239,10.1742093 L14.032239,10.1742093 Z M13.5586607,8.26472267 C13.563225,8.19736821 13.6479732,7.68998929 13.1666232,7.68998929 C12.8984389,7.68998929 12.7063677,7.89488994 12.6282809,8.26472267 L13.5586607,8.26472267 L13.5586607,8.26472267 Z" id="Fill-349-Copy" fill="#FFFFFF"></path>
                    <path d="M8.19115165,8.04662252 C8.19115165,8.45432671 8.38877408,8.73460022 8.83669358,8.94591558 C9.17975723,9.10727022 9.23292531,9.15501047 9.23292531,9.30131522 C9.23292531,9.50202164 9.08156281,9.59256774 8.74614747,9.59256774 C8.49338321,9.59256774 8.25813603,9.55333932 7.98674444,9.46587721 C7.98674444,9.46587721 7.8757206,10.1754429 7.87053949,10.2088734 C8.0629808,10.2510624 8.23482103,10.2895507 8.7521921,10.3044772 C9.64655078,10.3044772 10.0595594,9.96412751 10.0595594,9.22828621 C10.0595594,8.78567118 9.88660898,8.52612213 9.46212785,8.33121362 C9.10685158,8.16776186 9.06601948,8.13161743 9.06601948,7.98111846 C9.06601948,7.80705775 9.20689639,7.71749853 9.48087854,7.71749853 C9.64692085,7.71749853 9.874273,7.7360025 10.0896592,7.76634901 L10.2103051,7.01965204 C9.99084802,6.98498793 9.65826996,6.95661518 9.46447169,6.95661518 C8.51632813,6.95661518 8.18831438,7.45178148 8.19115165,8.04662252" id="Fill-350-Copy" fill="#FFFFFF"></path>
                    <path d="M25.5186416,10.2485953 L24.7170495,10.2485953 L24.7567714,9.94895426 C24.5242381,10.1972776 24.2860303,10.3044772 23.9754103,10.3044772 C23.3595981,10.3044772 22.9521406,9.77378332 22.9521406,8.96824371 C22.9521406,7.89723378 23.5838663,6.99448664 24.3310567,6.99448664 C24.6596872,6.99448664 24.908504,7.12870212 25.1402971,7.43364759 L25.3282974,6.28948528 L26.1640602,6.28948528 L25.5186416,10.2485953 L25.5186416,10.2485953 Z M24.2683899,9.5046122 C24.6632647,9.5046122 24.9403308,9.05743286 24.9403308,8.4196626 C24.9403308,8.01047809 24.7825536,7.7881837 24.4913011,7.7881837 C24.1069119,7.7881837 23.83404,8.23696672 23.83404,8.87017266 C23.83404,9.29156979 23.9802214,9.5046122 24.2683899,9.5046122 L24.2683899,9.5046122 Z" id="Fill-351-Copy" fill="#FFFFFF"></path>
                    <path d="M21.7966292,7.02878067 C21.6906631,8.02540463 21.5021693,9.03473465 21.3547544,10.0320988 L21.3161427,10.2485953 L22.163748,10.2485953 C22.4669665,8.27952585 22.5398721,7.89526002 23.0155476,7.94324699 C23.0911672,7.54023047 23.2321674,7.18729803 23.3371466,7.00941318 C22.9822404,6.93539729 22.7840012,7.13598035 22.5242054,7.51716218 C22.5449299,7.35223011 22.5823079,7.19223243 22.5752764,7.02878067 L21.7966292,7.02878067" id="Fill-352-Copy" fill="#FFFFFF"></path>
                    <path d="M14.3783866,10.0320988 L14.3398984,10.2485953 L15.1877504,10.2485953 C15.4910922,8.27952585 15.5637511,7.89526002 16.0386864,7.94324699 C16.1147994,7.54023047 16.2560464,7.18729803 16.3607789,7.00941318 C16.0062428,6.93539729 15.8076335,7.13598035 15.5483311,7.51716218 C15.5688089,7.35223011 15.6064336,7.19223243 15.599032,7.02878067 L14.8207549,7.02878067 C14.7142954,8.02540463 14.5255549,9.03473465 14.3783866,10.0320988 Z" id="Fill-353-Copy" fill="#FFFFFF"></path>
                </g>
            </g>
        </g>
    </g>
</svg>