<?xml version="1.0" encoding="UTF-8"?>
<svg width="112px" height="112px" viewBox="0 0 112 112" version="1.1" xmlns="http://www.w3.org/2000/svg" xmlns:xlink="http://www.w3.org/1999/xlink">
    <!-- Generator: Sketch 46.2 (44496) - http://www.bohemiancoding.com/sketch -->
    <title>Group 9</title>
    <desc>Created with Sketch.</desc>
    <defs></defs>
    <g id="Page-1" stroke="none" stroke-width="1" fill="none" fill-rule="evenodd">
        <g id="My-Orders---Not-Logged-In" transform="translate(-124.000000, -140.000000)">
            <g id="Group-9" transform="translate(124.000000, 140.000000)">
                <circle id="Face" fill="#E0E0E0" cx="56" cy="56" r="56"></circle>
                <circle id="Eye" fill="#616161" cx="32" cy="60" r="8"></circle>
                <circle id="Eye" fill="#616161" cx="82" cy="60" r="8"></circle>
                <path d="M70.2226057,87.2000824 C66.389848,83.9560586 61.4321349,82 56.0175598,82 C50.6908553,82 45.8063047,83.8930859 42,87.0431656" id="Mouth" stroke="#616161" stroke-width="5" stroke-linecap="round" stroke-linejoin="round"></path>
                <path d="M35.3930654,44.6997561 C34.128526,44.2467629 32.7658195,44 31.3454783,44 C26.0903849,44 21.6242581,47.3779671 20,52.0809989" id="Eyebrow" stroke="#616161" stroke-width="5" stroke-linejoin="round"></path>
                <path d="M93.3930654,44.6997561 C92.128526,44.2467629 90.7658195,44 89.3454783,44 C84.0903849,44 79.6242581,47.3779671 78,52.0809989" id="Eyebrow" stroke="#616161" stroke-width="5" stroke-linejoin="round" transform="translate(85.696533, 48.040499) scale(-1, 1) translate(-85.696533, -48.040499) "></path>
            </g>
        </g>
    </g>
</svg>