<?xml version="1.0" encoding="UTF-8"?>
<svg width="21px" height="18px" viewBox="0 0 21 18" version="1.1" xmlns="http://www.w3.org/2000/svg" xmlns:xlink="http://www.w3.org/1999/xlink">
    <!-- Generator: Sketch 46.2 (44496) - http://www.bohemiancoding.com/sketch -->
    <title>Group</title>
    <desc>Created with Sketch.</desc>
    <defs></defs>
    <g id="CMS-Components" stroke="none" stroke-width="1" fill="none" fill-rule="evenodd">
        <g id="Navigation-Menu" transform="translate(-34.000000, -184.000000)" fill-rule="nonzero" fill="#616161">
            <g id="Group" transform="translate(34.000000, 184.000000)">
                <g id="Shape">
                    <path d="M10.4999998,0 C7.79460404,0 5.08920853,2.05287199 4.84783484,5.6204846 L2.83638813,5.6204846 C1.48871886,5.80982707 0.714311898,6.65688591 0.372365961,7.81287205 C0.0304200266,8.96885818 0.000248326747,10.4038755 0.000248326747,11.8388928 C0.000248326747,13.2340485 -0.0198661398,14.5694118 0.301965325,15.6955018 C0.623796807,16.8215918 1.5591195,17.9975087 2.74587304,17.9875433 C7.87506203,18.0074752 13.0243655,17.9975078 18.1636118,17.9975078 C19.3000792,17.9975078 20.2756309,16.9611065 20.6276339,15.8150857 C20.96958,14.6590996 20.9997516,13.2440131 20.9997516,11.8388919 C20.9997516,10.41384 21.0198672,9.0685114 20.6980347,7.93245603 C20.3862602,6.79640065 19.5917389,5.84968774 18.254127,5.63044913 C17.5601778,5.61051725 16.8461143,5.6204846 16.1521651,5.6204846 C15.890677,2.05287199 13.2154529,0 10.4999998,0 Z M10.4999998,1.12608998 C12.6321333,1.12608998 14.7743241,2.61093427 15.0156977,5.6204846 L5.98430222,5.6204846 C6.2055612,2.61093427 8.36786634,1.12608998 10.4999998,1.12608998 Z M2.83638813,6.74657432 L4.82772041,6.74657432 C4.82772041,7.18505181 4.82772041,7.68332185 4.82772041,7.87266432 C4.81766405,8.17162623 5.08920853,8.44069201 5.3909255,8.44069201 C5.69264247,8.44069201 5.9641878,8.17162623 5.9641878,7.87266432 L5.9641878,6.74657432 L8.12649294,6.74657432 C7.96557724,7.81287205 7.98569166,8.76955034 8.26729421,9.56678201 C8.60924003,10.5334257 9.43393323,11.2509343 10.4999998,11.2509343 C11.5761239,11.2509343 12.4008171,10.5334257 12.7327058,9.56678201 C13.0143083,8.76955034 13.0444799,7.81287205 12.8835642,6.74657432 L15.0458694,6.74657432 L15.0458694,7.87266432 C15.035813,8.17162623 15.3073575,8.44069201 15.6090745,8.44069201 C15.9107914,8.44069201 16.1823368,8.17162623 16.1823368,7.87266432 L16.1823368,6.74657432 L18.1032685,6.74657432 C19.0184766,6.90602093 19.3704797,7.36442918 19.6118533,8.24138416 C19.8632843,9.12830452 19.8733415,10.4138409 19.8733415,11.8388928 C19.8733415,13.2141178 19.8029407,14.5694118 19.5313956,15.4961939 C19.3201936,16.2236679 18.8575609,16.8315571 18.1636118,16.8714187 L2.89673146,16.8714187 C1.99158053,16.7119723 1.64963459,16.2535641 1.39820377,15.3865745 C1.15683017,14.4996541 1.13671568,13.2340485 1.13671568,11.8388928 C1.13671568,10.4337716 1.18700186,9.05854687 1.46860441,8.12179934 C1.67980629,7.39432532 2.14243904,6.78643611 2.83638813,6.74657432 Z M9.26296032,6.74657432 L11.7470969,6.74657432 C11.9180698,7.7530795 11.8778409,8.62006938 11.6766964,9.19806245 C11.4453799,9.85577854 11.1336057,10.1248443 10.4999998,10.1248443 C9.87645147,10.1248443 9.56467729,9.85577854 9.33336081,9.19806245 C9.13221626,8.62006938 9.09198741,7.7530795 9.26296032,6.74657432 Z M10.1681112,8.43072663 C9.86639426,8.45065851 9.61496336,8.72968854 9.62502057,9.01868507 C9.63507693,9.31764699 9.91668033,9.57674739 10.2183973,9.55681663 L10.7816024,9.55681663 C11.0833194,9.56678116 11.3649219,9.29771623 11.3649219,8.99875432 C11.3649219,8.69979241 11.0833194,8.43072663 10.7816024,8.43072663 C10.5804578,8.43072663 10.3692558,8.43072663 10.1681112,8.43072663 L10.1681112,8.43072663 Z"></path>
                </g>
            </g>
        </g>
    </g>
</svg>