<?xml version="1.0" encoding="UTF-8"?>
<svg width="22px" height="25px" viewBox="0 0 22 25" version="1.1" xmlns="http://www.w3.org/2000/svg" xmlns:xlink="http://www.w3.org/1999/xlink">
    <!-- Generator: Sketch 46.2 (44496) - http://www.bohemiancoding.com/sketch -->
    <title>Shape</title>
    <desc>Created with Sketch.</desc>
    <defs></defs>
    <g id="CMS-Components" stroke="none" stroke-width="1" fill="none" fill-rule="evenodd">
        <g id="Navigation-Menu" transform="translate(-33.000000, -70.000000)" fill-rule="nonzero" fill="#616161">
            <path d="M34.6646602,77.2536703 C35.3429185,77.9198605 36.4403256,77.9198605 37.1185839,77.2536703 L37.4339983,76.9428879 C37.6344308,76.740434 37.9306839,76.6612864 38.2074573,76.736249 C38.4842307,76.8112117 38.6978007,77.0284422 38.7650469,77.3033955 L39.8942303,81.5673297 C39.9693366,81.8501482 40.1170642,82.1091561 40.3231939,82.319423 C40.0537513,82.5143233 39.837109,82.7715436 39.6923651,83.0684086 L34.5101071,93.8245866 C34.4322253,93.9098325 34.3894779,94.0206736 34.3902497,94.135369 C34.3692681,94.3624163 34.5191345,94.5707302 34.7435138,94.6264051 C35.4989431,95.1853173 36.5569868,95.1097157 37.2226707,94.4492592 C37.6030072,94.0913149 38.20177,94.0913149 38.5821066,94.4492592 C39.3278268,95.1805879 40.5331791,95.1805879 41.2788994,94.4492592 C41.6592359,94.0913149 42.2579987,94.0913149 42.6383353,94.4492592 C43.3833393,95.1822953 44.5901241,95.1822953 45.3351281,94.4492592 L45.3351281,94.4492592 C45.7154647,94.0913149 46.3142274,94.0913149 46.694564,94.4492592 C47.4402842,95.1805879 48.6456366,95.1805879 49.3913568,94.4492592 C49.7716934,94.0913149 50.3704561,94.0913149 50.7507927,94.4492592 C51.4177372,95.1105269 52.4778508,95.1848528 53.2331037,94.6232973 C53.4547693,94.5732524 53.6061696,94.3712694 53.589522,94.1478003 C53.5902937,94.0331049 53.5475463,93.9222637 53.4696645,93.8370179 L48.3000231,83.0715164 C48.1552792,82.7746514 47.9386369,82.5174311 47.6691944,82.3225308 C47.875324,82.1122639 48.0230516,81.853256 48.0981579,81.5704375 L49.2273413,77.3033955 C49.2959178,77.0310298 49.5082247,76.8162658 49.7827509,76.7415578 C50.0572771,76.6668497 50.3513559,76.7438087 50.5520817,76.9428879 L50.867496,77.2536703 C51.5457544,77.9198605 52.6431614,77.9198605 53.3214198,77.2536703 L54.491607,76.1006677 C54.8171174,75.7800881 55,75.3451986 55,74.8917242 C55,74.4382499 54.8171174,74.0033603 54.491607,73.6827808 L51.2554557,70.5003693 C50.9307964,70.1786798 50.4889208,69.9984814 50.0284938,70.0000096 L48.5902043,70.0000096 C48.3575264,70.0010513 48.1272497,70.0464303 47.9120634,70.1336461 C47.8736914,70.1424993 47.836602,70.1560731 47.8016684,70.1740478 C45.3130491,71.457579 42.8181215,71.457579 40.171795,70.1740478 C40.1367121,70.1571455 40.0996279,70.1446176 40.0613999,70.1367539 C39.8503576,70.0500293 39.6245073,70.0036242 39.3958756,70.0000096 L37.954432,70.0000096 C37.494005,69.9984814 37.0521294,70.1786798 36.7274701,70.5003693 L33.5070895,73.679673 C32.8309702,74.3479708 32.8309702,75.429262 33.5070895,76.0975599 L34.6646602,77.2536703 Z M52.5076507,93.9924091 C52.1437458,94.1616464 51.7110165,94.0855971 51.4289336,93.8028318 C51.0732268,93.4469403 50.5874787,93.2465415 50.0805372,93.2465415 C49.5735956,93.2465415 49.0878475,93.4469403 48.7321408,93.8028318 C48.3565722,94.1723106 47.7482734,94.1723106 47.3727049,93.8028318 C47.0169981,93.4469403 46.53125,93.2465415 46.0243085,93.2465415 C45.5173669,93.2465415 45.0316188,93.4469403 44.6759121,93.8028318 L44.6759121,93.8028318 C44.3003435,94.1723106 43.6920447,94.1723106 43.3164762,93.8028318 C42.9607694,93.4469403 42.4750213,93.2465415 41.9680798,93.2465415 C41.4611382,93.2465415 40.9753901,93.4469403 40.6196834,93.8028318 C40.2441148,94.1723106 39.635816,94.1723106 39.2602474,93.8028318 C38.9045407,93.4469403 38.4187926,93.2465415 37.911851,93.2465415 C37.4049095,93.2465415 36.9191614,93.4469403 36.5634546,93.8028318 C36.2813717,94.0855971 35.8486424,94.1616464 35.4847375,93.9924091 L40.5376756,83.4693178 C40.7214985,83.0909865 41.1086849,82.8495306 41.534385,82.8477531 L46.4485408,82.8477531 C46.8742409,82.8495306 47.2614273,83.0909865 47.4452502,83.4693178 L52.5076507,93.9924091 Z M44.0545458,72.0604968 C44.9702689,72.0584091 45.8797159,71.9115088 46.7481844,71.6254015 C46.2758377,72.7181686 45.1843091,73.4251252 43.978874,73.4190169 C42.7734388,73.4129086 41.6893477,72.6949273 41.2284331,71.5974311 C42.1394866,71.8988767 43.0935109,72.055196 44.0545458,72.0604968 Z M34.1757679,74.3385316 L37.3993027,71.1592279 C37.5470733,71.0130194 37.7481729,70.931298 37.9575861,70.9323568 L39.3958756,70.9323568 C39.7604565,70.9234107 40.0865578,71.1545524 40.193874,71.4979807 C40.6635163,73.1855413 42.2202584,74.3554389 43.9961941,74.3554389 C45.7721299,74.3554389 47.328872,73.1855413 47.7985143,71.4979807 C47.9058304,71.1545524 48.2319317,70.9234107 48.5965126,70.9323568 L50.0348021,70.9323568 C50.2439415,70.9326662 50.4445302,71.01418 50.5930855,71.1592279 L53.8134662,74.3385316 C53.9617767,74.4842952 54.0451282,74.6822146 54.0451282,74.8886164 C54.0451282,75.0950183 53.9617767,75.2929377 53.8134662,75.4387012 L52.6432789,76.5917038 C52.4953428,76.7378364 52.2944736,76.8199638 52.0849955,76.8199638 C51.8755173,76.8199638 51.6746481,76.7378364 51.526712,76.5917038 L51.2112977,76.2809215 C50.771621,75.8478398 50.130355,75.679693 49.5303687,75.8401641 C48.9303823,76.0006351 48.4634183,76.4651866 48.3063314,77.0578774 L47.1866104,81.3342429 C47.0961312,81.6765976 46.7823522,81.9155024 46.4233076,81.9154059 L41.5627723,81.9154059 C41.2037277,81.9155024 40.8899488,81.6765976 40.7994695,81.3342429 L39.6702861,77.0703087 C39.5131993,76.4776179 39.0462352,76.0130664 38.4462488,75.8525954 C37.8462625,75.6921243 37.2049965,75.8602711 36.7653198,76.2933528 L36.4499055,76.6041351 C36.3019694,76.7502676 36.1011002,76.8323951 35.891622,76.8323951 C35.6821439,76.8323951 35.4812747,76.7502676 35.3333386,76.6041351 L34.1631513,75.4511325 C34.01258,75.3032312 33.9290042,75.1016867 33.9313796,74.892211 C33.933755,74.6827354 34.0218803,74.4830811 34.1757679,74.3385316 Z" id="Shape"></path>
        </g>
    </g>
</svg>