<?xml version="1.0" encoding="UTF-8"?>
<svg width="13px" height="23px" viewBox="0 0 13 23" version="1.1" xmlns="http://www.w3.org/2000/svg" xmlns:xlink="http://www.w3.org/1999/xlink">
    <!-- Generator: Sketch 46.2 (44496) - http://www.bohemiancoding.com/sketch -->
    <title>Shape</title>
    <desc>Created with Sketch.</desc>
    <defs></defs>
    <g id="CMS-Components" stroke="none" stroke-width="1" fill="none" fill-rule="evenodd">
        <g id="Navigation-Menu" transform="translate(-38.000000, -238.000000)" fill-rule="nonzero" fill="#616161">
            <path d="M38.0091705,248.460517 C38.2584626,251.687484 39.867266,257.52744 40.548471,259.883412 C40.7339281,260.54079 41.3400617,260.996808 42.0326284,261 L46.9836847,261 C47.6781463,260.997726 48.2860741,260.540083 48.4707409,259.880556 C49.1374522,257.524584 50.7201669,251.696052 50.9839527,248.477651 C51.0053491,248.240141 51.0053491,248.00123 50.9839527,247.76372 C51.0025362,247.67384 50.9903011,247.580426 50.9491678,247.498138 C50.6539046,245.666803 49.1361253,244.265591 47.2619642,244.094115 L47.2619642,243.742861 C47.2618275,242.327928 47.6483216,240.939049 48.3808798,239.722001 L48.412766,239.670598 C48.6173665,239.328591 48.620607,238.904884 48.4212607,238.559879 C48.2219144,238.214873 47.850447,238.001296 47.4474839,238 L41.5514368,238 C41.1475652,238.000693 40.7750775,238.214664 40.5755402,238.56059 C40.3760029,238.906516 40.3800544,239.331283 40.5861547,239.673454 L40.6180409,239.724857 C41.3505991,240.941904 41.7370932,242.330784 41.7369565,243.745716 L41.7369565,244.094115 C39.8327718,244.270362 38.3008653,245.71217 38.0352592,247.578098 L38.0352592,247.598088 C38.0352592,247.618078 38.0352592,247.640924 38.0352592,247.660914 C38.0352592,247.680904 38.0352592,247.660914 38.0352592,247.660914 L38.0352592,247.660914 C37.9997935,247.925946 37.9910546,248.193787 38.0091705,248.460517 Z M47.6330036,259.649243 C47.5545167,259.939398 47.2884862,260.14181 46.9836847,260.143283 L42.0326284,260.143283 C41.7319103,260.143601 41.4672008,259.948015 41.3833096,259.663521 C41.2064861,259.052396 40.968789,258.207102 40.707902,257.2333 L48.2997149,257.2333 C48.0417266,258.192823 47.8069283,259.038118 47.6330036,259.649243 L47.6330036,259.649243 Z M48.5229183,256.36516 L40.4817999,256.36516 C40.2933815,255.639806 40.0962668,254.865905 39.9020509,254.080581 C40.3541614,254.152447 40.8131137,253.999596 41.12822,253.672213 C41.3667562,253.448106 41.7419148,253.448106 41.980451,253.672213 C42.5563766,254.238277 43.488723,254.238277 44.0646486,253.672213 C44.3031848,253.448106 44.6783434,253.448106 44.9168796,253.672213 C45.4721111,254.218372 46.3645126,254.239723 46.9460011,253.72076 L46.9952797,253.677924 C47.2306901,253.446254 47.6121004,253.446254 47.8475107,253.677924 C48.1232397,253.950324 48.4976724,254.103423 48.8881601,254.103427 C48.9503023,254.101534 49.0122634,254.095812 49.0736798,254.086293 C48.9026539,254.868761 48.7113367,255.639806 48.5229183,256.36516 L48.5229183,256.36516 Z M49.3171744,253.083933 C49.0831554,253.308098 48.7105574,253.308098 48.4765384,253.083933 C47.9206871,252.539202 47.029454,252.517879 46.4474169,253.035386 L46.3981383,253.078222 C46.1596021,253.302329 45.7844435,253.302329 45.5459073,253.078222 C44.9709756,252.512485 44.0395401,252.512485 43.4646084,253.078222 C43.2260722,253.302329 42.8509136,253.302329 42.6123774,253.078222 C42.0374457,252.512485 41.1060103,252.512485 40.5310786,253.078222 C40.2937223,253.296934 39.9249,253.296934 39.6875438,253.078222 C39.583189,252.615595 39.4846317,252.155823 39.3976693,251.704619 C39.8946875,251.779985 40.3984368,251.617742 40.7542819,251.267693 C41.0375326,251.001884 41.4826933,251.001884 41.7659439,251.267693 C42.3849734,251.87663 43.3876442,251.87663 44.0066737,251.267693 C44.2861819,250.992822 44.7388275,250.992822 45.0183357,251.267693 C45.6176692,251.856978 46.5812385,251.878352 47.2068881,251.31624 L47.2590655,251.273405 C47.5385736,250.998534 47.9912193,250.998534 48.2707275,251.273405 C48.5679772,251.566812 48.9717593,251.731273 49.3925418,251.73032 C49.4703025,251.728268 49.5478079,251.720633 49.6244414,251.707475 C49.5171878,252.147256 49.4186305,252.61845 49.3171744,253.083933 L49.3171744,253.083933 Z M41.3630184,239.296499 L41.3311322,239.245096 C41.2858658,239.167875 41.2855275,239.072805 41.3302431,238.995274 C41.3749587,238.917742 41.4580308,238.869362 41.548538,238.86814 L47.4474839,238.86814 C47.5385098,238.868354 47.6225225,238.916337 47.6679413,238.994051 C47.71336,239.071766 47.7133018,239.167435 47.6677885,239.245096 L47.6359023,239.296499 C46.823696,240.645785 46.3951487,242.185584 46.3952395,243.754284 L46.3952395,244.085548 L42.6036812,244.085548 L42.6036812,243.742861 C42.6015514,242.178057 42.1730883,240.642505 41.3630184,239.296499 Z M39.7368225,245.961758 C40.3520797,245.30143 41.2213521,244.927156 42.1311858,244.930842 L46.8648362,244.930842 C48.318452,244.930362 49.5972092,245.876942 50.0012782,247.252545 L38.9860475,247.252545 C39.1298438,246.770129 39.3870594,246.327905 39.7368225,245.961758 L39.7368225,245.961758 Z M50.128823,248.109262 C50.128823,248.206357 50.128823,248.306307 50.128823,248.394835 C50.0737468,249.071641 49.957797,249.868388 49.8041635,250.725106 C49.5203985,250.926162 49.1307498,250.895984 48.8823627,250.653712 C48.2824071,250.065865 47.3200155,250.044516 46.6938102,250.605165 L46.6416328,250.648001 C46.3621247,250.922872 45.909479,250.922872 45.6299709,250.648001 C45.0109414,250.039064 44.0082706,250.039064 43.389241,250.648001 C43.1097329,250.922872 42.6570872,250.922872 42.3775791,250.648001 C41.7585496,250.039064 40.7558788,250.039064 40.1368493,250.648001 C39.8855932,250.90153 39.4824164,250.932083 39.1947572,250.719394 C39.0411237,249.862677 38.9251739,249.063074 38.8729965,248.386268 C38.8729965,248.292029 38.8729965,248.19779 38.8729965,248.100695 L50.128823,248.109262 Z" id="Shape"></path>
        </g>
    </g>
</svg>