<?xml version="1.0" encoding="UTF-8"?>
<svg width="21px" height="23px" viewBox="0 0 21 23" version="1.1" xmlns="http://www.w3.org/2000/svg" xmlns:xlink="http://www.w3.org/1999/xlink">
    <!-- Generator: Sketch 46.2 (44496) - http://www.bohemiancoding.com/sketch -->
    <title>Group 19</title>
    <desc>Created with Sketch.</desc>
    <defs></defs>
    <g id="CMS-Components" stroke="none" stroke-width="1" fill="none" fill-rule="evenodd">
        <g id="Navigation-Menu" transform="translate(-34.000000, -126.000000)" fill-rule="nonzero" fill="#616161">
            <g id="Group-19" transform="translate(34.000000, 126.000000)">
                <path d="M7.56337037,21.686 C6.63574074,21.035 5.74414815,20.14 4.91192593,19.1225 L4.91192593,19.1225 C3.2492963,17.08675 1.82648148,14.558 0.944481481,12.4925 L0.944481481,12.4925 C0.358296296,11.109 0.00622222222,9.9595 -4.4694304e-13,9.208 L-4.4694304e-13,9.208 C-0.00155555556,8.63575 0.163592593,8.14775 0.441,7.74525 L0.441,7.74525 C0.71762963,7.34125 1.092,7.02125 1.50759259,6.72025 L1.50759259,6.72025 C2.34085185,6.1205 3.35351852,5.58225 4.27362963,4.70725 L4.27362963,4.70725 C4.93811111,4.07825 5.35059259,3.33025 5.82607407,2.59975 L5.82607407,2.59975 C6.29948148,1.87425 6.85637037,1.154 7.82107407,0.711 L7.82107407,0.711 C8.46144444,0.41575 9.26411111,0.24925 10.3058148,0.25 L10.3058148,0.25 C10.3524815,0.2495 10.4001852,0.25 10.4486667,0.25075 L10.4486667,0.25075 C10.4997407,0.25025 10.5487407,0.25 10.5954074,0.25 L10.5954074,0.25 C11.6373704,0.24975 12.4395185,0.41625 13.0798889,0.7115 L13.0798889,0.7115 C13.721037,1.00575 14.1871852,1.42625 14.5620741,1.8865 L14.5620741,1.8865 C15.3095185,2.8125 15.7398889,3.8715 16.6281111,4.7075 L16.6281111,4.7075 L16.3688519,4.962 L16.1095926,5.216 C15.3465926,4.491 14.9053333,3.6755 14.4498148,2.98075 L14.4498148,2.98075 C13.9914444,2.281 13.5382593,1.714 12.7615185,1.35525 L12.7615185,1.35525 C12.2414444,1.116 11.5577778,0.96375 10.5954074,0.96375 L10.5954074,0.96375 C10.5487407,0.96375 10.5036296,0.96375 10.4598148,0.965 L10.4598148,0.965 L10.4533333,0.965 L10.4447778,0.965 C10.3978519,0.96425 10.351963,0.96375 10.3063333,0.96375 L10.3063333,0.96375 C9.3437037,0.96375 8.6602963,1.116 8.14022222,1.3555 L8.14022222,1.3555 C7.62014815,1.59575 7.2507037,1.925 6.92066667,2.328 L6.92066667,2.328 C6.25903704,3.128 5.80740741,4.2465 4.79266667,5.21625 L4.79266667,5.21625 C4.039,5.9315 3.24851852,6.42675 2.5772963,6.8665 L2.5772963,6.8665 C1.90374074,7.30475 1.36085185,7.6915 1.05881481,8.1385 L1.05881481,8.1385 C0.856592593,8.4375 0.741740741,8.76125 0.740185185,9.2085 L0.740185185,9.2085 C0.736814815,9.609 0.914148148,10.362 1.24781481,11.26475 L1.24781481,11.26475 C1.57992593,12.17175 2.06266667,13.24375 2.65351852,14.35175 L2.65351852,14.35175 C3.83366667,16.568 5.45481481,18.93125 7.14985185,20.43425 L7.14985185,20.43425 C8.27944444,21.44075 9.42977778,22.04225 10.451,22.037 L10.451,22.037 C11.2178889,22.03875 12.0534815,21.7065 12.9030741,21.1095 L12.9030741,21.1095 C13.7521481,20.51525 14.6058889,19.66425 15.4085556,18.68175 L15.4085556,18.68175 C17.0151852,16.71725 18.4177778,14.228 19.2730741,12.22175 L19.2730741,12.22175 C19.8452593,10.89175 20.1672593,9.74775 20.1612963,9.2085 L20.1612963,9.2085 C20.1597407,8.76125 20.0454074,8.4375 19.8426667,8.1385 L19.8426667,8.1385 C19.6401852,7.8405 19.3347778,7.56925 18.9505556,7.29175 L18.9505556,7.29175 C18.1834074,6.73475 17.1144815,6.169 16.1093333,5.21625 L16.1093333,5.21625 L16.3685926,4.96225 L16.6278519,4.70775 C17.3185185,5.3635 18.0597407,5.83175 18.7395185,6.276 L18.7395185,6.276 C19.416963,6.7215 20.0433333,7.14 20.4607407,7.7455 L20.4607407,7.7455 C20.7381481,8.14775 20.9032963,8.636 20.9017407,9.20825 L20.9017407,9.20825 C20.8981111,9.77575 20.6961481,10.5545 20.3513333,11.50225 L20.3513333,11.50225 C20.0054815,12.4465 19.5108148,13.54325 18.9062222,14.6775 L18.9062222,14.6775 C17.6954815,16.9455 16.0517778,19.35825 14.2532963,20.9585 L14.2532963,20.9585 C13.0531852,22.02075 11.7727037,22.745 10.451,22.75025 L10.451,22.75025 C9.46088889,22.748 8.4897037,22.3345 7.56337037,21.686 L7.56337037,21.686 Z" id="Shape"></path>
                <ellipse id="Oval" cx="5.16418519" cy="6.465" rx="1" ry="1"></ellipse>
                <path d="M4.9,5.7645 C4.49892593,5.90525 4.2922963,6.333 4.43825926,6.71975 C4.58422222,7.1065 5.02755556,7.306 5.42862963,7.165 C5.8297037,7.02425 6.03633333,6.59675 5.89062963,6.21 C5.74466667,5.82325 5.30107407,5.6235 4.9,5.7645 Z M5.3842963,7.04775 C5.05037037,7.165 4.68144444,6.999 4.55985185,6.677 C4.43825926,6.355 4.61014815,5.999 4.94433333,5.88175 C5.27851852,5.7645 5.64718519,5.9305 5.76903704,6.2525 C5.89037037,6.57475 5.71822222,6.93075 5.3842963,7.04775 Z" id="Shape"></path>
                <ellipse id="Oval" cx="6.14133333" cy="8.0965" rx="1" ry="1"></ellipse>
                <path d="M5.64433333,7.5255 C5.31714815,7.79025 5.27462963,8.26025 5.54892593,8.57575 C5.82322222,8.891 6.31062963,8.93225 6.63781481,8.6675 C6.96474074,8.40275 7.00751852,7.93275 6.73322222,7.6175 C6.45892593,7.30225 5.97125926,7.261 5.64433333,7.5255 Z M6.55485185,8.57175 C6.28262963,8.792 5.87688889,8.75775 5.64848148,8.495 C5.42007407,8.2325 5.45533333,7.84125 5.72781481,7.621 C6.0002963,7.40075 6.40577778,7.43525 6.63418519,7.69775 C6.86259259,7.96025 6.82681481,8.3515 6.55485185,8.57175 Z" id="Shape"></path>
                <ellipse id="Oval" cx="7.63803704" cy="9.30725" rx="1" ry="1"></ellipse>
                <path d="M6.96837037,8.93475 C6.755,9.29125 6.88177778,9.747 7.25148148,9.953 C7.62092593,10.1585 8.09355556,10.0365 8.30692593,9.68 C8.52055556,9.3235 8.39377778,8.86775 8.02407407,8.662 C7.65437037,8.45625 7.182,8.57825 6.96837037,8.93475 Z M8.19492593,9.61775 C8.01733333,9.91475 7.62403704,10.01625 7.3162963,9.84475 C7.0082963,9.67325 6.90303704,9.294 7.08062963,8.99725 C7.25848148,8.7005 7.65203704,8.599 7.95951852,8.77025 C8.26725926,8.94175 8.37277778,9.321 8.19492593,9.61775 Z" id="Shape"></path>
                <ellipse id="Oval" cx="9.47411111" cy="9.952" rx="1" ry="1"></ellipse>
                <path d="M8.71266667,9.8225 C8.63851852,10.22775 8.9192963,10.61425 9.33955556,10.68575 C9.75981481,10.75725 10.1608889,10.48675 10.235037,10.08125 C10.3091852,9.676 10.0286667,9.28925 9.60814815,9.218 C9.18762963,9.1465 8.78681481,9.41725 8.71266667,9.8225 Z M10.1072222,10.0595 C10.0457778,10.397 9.71211111,10.62225 9.36211111,10.563 C9.01211111,10.5035 8.77851852,10.18175 8.84022222,9.84425 C8.90192593,9.50675 9.23559259,9.2815 9.58559259,9.341 C9.93559259,9.4005 10.1689259,9.72225 10.1072222,10.0595 Z" id="Shape"></path>
                <ellipse id="Oval" cx="11.4278889" cy="9.952" rx="1" ry="1"></ellipse>
                <path d="M10.6667037,10.08125 C10.7405926,10.48675 11.1416667,10.75725 11.5619259,10.68575 C11.9821852,10.61425 12.2632222,10.22775 12.1888148,9.8225 C12.1149259,9.417 11.7138519,9.1465 11.2935926,9.218 C10.8730741,9.28925 10.5928148,9.676 10.6667037,10.08125 Z M12.061,9.84425 C12.1227037,10.18175 11.8893704,10.5035 11.5393704,10.563 C11.1893704,10.62225 10.8557037,10.397 10.794,10.0595 C10.7322963,9.722 10.9656296,9.40025 11.3156296,9.341 C11.6656296,9.2815 11.9998148,9.50675 12.061,9.84425 Z" id="Shape"></path>
                <ellipse id="Oval" cx="13.2634444" cy="9.30725" rx="1" ry="1"></ellipse>
                <path d="M12.5942963,9.68025 C12.8074074,10.03675 13.2802963,10.15875 13.65,9.953 C14.0197037,9.74725 14.1462222,9.2915 13.9331111,8.935 C13.7194815,8.5785 13.2471111,8.4565 12.8774074,8.66225 C12.5077037,8.868 12.3806667,9.32375 12.5942963,9.68025 Z M13.8208519,8.99725 C13.9987037,9.294 13.8931852,9.67325 13.5854444,9.84475 C13.277963,10.01625 12.8846667,9.91425 12.7062963,9.61775 C12.528963,9.321 12.6344815,8.9415 12.9422222,8.77025 C13.2494444,8.599 13.643,8.70075 13.8208519,8.99725 Z" id="Shape"></path>
                <ellipse id="Oval" cx="14.7604074" cy="8.0965" rx="1" ry="1"></ellipse>
                <path d="M14.2639259,8.6675 C14.5905926,8.93225 15.0782593,8.891 15.3525556,8.5755 C15.6271111,8.26025 15.5845926,7.79 15.2574074,7.5255 C14.9302222,7.261 14.4425556,7.30225 14.1682593,7.6175 C13.8942222,7.9325 13.9367407,8.40275 14.2639259,8.6675 Z M15.1736667,7.621 C15.4461481,7.84125 15.4816667,8.2325 15.2532593,8.495 C15.0248519,8.75775 14.6188519,8.792 14.3468889,8.57175 C14.0749259,8.35125 14.0394074,7.96 14.2678148,7.69775 C14.4957037,7.435 14.901963,7.401 15.1736667,7.621 Z" id="Shape"></path>
                <ellipse id="Oval" cx="15.7372963" cy="6.46475" rx="1" ry="1"></ellipse>
                <path d="M15.4731111,7.165 C15.8741852,7.30575 16.3177778,7.1065 16.4634815,6.71975 C16.6091852,6.333 16.4028148,5.90525 16.0017407,5.7645 C15.6006667,5.62375 15.1570741,5.82325 15.0113704,6.21 C14.8648889,6.59675 15.072037,7.0245 15.4731111,7.165 Z M15.9571481,5.88175 C16.2913333,5.999 16.4634815,6.355 16.3418889,6.677 C16.2202963,6.999 15.8511111,7.165 15.5169259,7.04775 C15.1832593,6.9305 15.0111111,6.5745 15.1327037,6.25225 C15.2542963,5.93075 15.6234815,5.76475 15.9571481,5.88175 Z" id="Shape"></path>
                <path d="M10.4504815,14.5385 C10.1372963,14.5385 9.88296296,14.7835 9.88296296,15.086 C9.88296296,15.3885 10.1372963,15.6335 10.4504815,15.6335 C10.7641852,15.6335 11.0185185,15.3885 11.0185185,15.086 C11.0185185,14.7835 10.7644444,14.5385 10.4504815,14.5385 Z" id="Shape"></path>
                <path d="M9.59233333,15.1005 C9.59337037,14.977 9.64418519,14.78225 9.7172963,14.543 L9.7172963,14.543 C9.79092593,14.30475 9.88866667,14.028 9.98614815,13.76475 L9.98614815,13.76475 C10.1811111,13.238 10.3760741,12.7635 10.3760741,12.7635 L10.3760741,12.763 L10.451,12.581 L10.5254074,12.763 C10.5259259,12.76425 10.9638148,13.82925 11.1841852,14.543 L11.1841852,14.543 C11.2580741,14.78225 11.3083704,14.977 11.3091481,15.1005 L11.3091481,15.1005 C11.3091481,15.55775 10.9249259,15.92875 10.451,15.92875 L10.451,15.92875 C9.97655556,15.92875 9.59259259,15.55775 9.59233333,15.1005 L9.59233333,15.1005 Z M10.2798889,13.44 C10.1435185,13.794 9.97966667,14.2365 9.8712963,14.587 L9.8712963,14.587 C9.7987037,14.8195 9.75203704,15.01725 9.75307407,15.10075 L9.75307407,15.10075 C9.75359259,15.47225 10.0657407,15.773 10.451,15.7735 L10.451,15.7735 C10.8362593,15.773 11.1481481,15.47225 11.1486667,15.10075 L11.1486667,15.10075 C11.1491852,15.039 11.1232593,14.91 11.0797037,14.75375 L11.0797037,14.75375 C11.0356296,14.5965 10.9744444,14.4085 10.9065185,14.2125 L10.9065185,14.2125 C10.7704074,13.82075 10.6065556,13.397 10.4974074,13.12175 L10.4974074,13.12175 C10.4805556,13.07925 10.465,13.04 10.4507407,13.005 L10.4507407,13.005 C10.4069259,13.11475 10.3467778,13.2665 10.2798889,13.44 L10.2798889,13.44 Z M10.3760741,12.81975 L10.451,12.7915 L10.3760741,12.81975 L10.3760741,12.81975 Z" id="Shape"></path>
                <path d="M9.30196296,12.1265 C9.34525926,12.12675 9.4137037,12.14325 9.4977037,12.16725 L9.4977037,12.16725 C9.58118519,12.1915 9.67840741,12.22325 9.7707037,12.255 L9.7707037,12.255 C9.95581481,12.319 10.1222593,12.3825 10.1225185,12.3825 L10.1225185,12.3825 L10.1865556,12.407 L10.1225185,12.4315 C10.1222593,12.4315 9.74814815,12.5745 9.4977037,12.6465 L9.4977037,12.6465 C9.4137037,12.6705 9.34525926,12.68675 9.30196296,12.68725 L9.30196296,12.68725 C9.14148148,12.68725 9.01133333,12.56175 9.01133333,12.407 L9.01133333,12.407 C9.01133333,12.252 9.14148148,12.1265 9.30196296,12.1265 L9.30196296,12.1265 Z M9.88503704,12.351 C9.76059259,12.30625 9.6052963,12.25275 9.48214815,12.2175 L9.48214815,12.2175 C9.40074074,12.19375 9.331,12.17875 9.3017037,12.17875 L9.3017037,12.17875 C9.1712963,12.17925 9.06551852,12.281 9.06551852,12.40675 L9.06551852,12.40675 C9.06551852,12.5325 9.1712963,12.63425 9.3017037,12.6345 L9.3017037,12.6345 C9.32348148,12.63475 9.36885185,12.6265 9.42355556,12.61175 L9.42355556,12.61175 C9.47877778,12.5975 9.54488889,12.5775 9.61359259,12.5555 L9.61359259,12.5555 C9.75125926,12.51075 9.89981481,12.45725 9.99677778,12.42175 L9.99677778,12.42175 C10.0118148,12.4165 10.0252963,12.41125 10.0377407,12.4065 L10.0377407,12.4065 C9.99911111,12.39225 9.9457037,12.37275 9.88503704,12.351 L9.88503704,12.351 Z M10.1025556,12.38225 L10.1126667,12.40675 L10.1025556,12.38225 L10.1025556,12.38225 Z" id="Shape"></path>
                <path d="M11.5992593,12.1265 C11.7597407,12.1265 11.8898889,12.252 11.8898889,12.40675 L11.8898889,12.40675 C11.8898889,12.5615 11.7597407,12.687 11.5992593,12.687 L11.5992593,12.687 C11.5562222,12.6865 11.4877778,12.67025 11.4037778,12.64625 L11.4037778,12.64625 C11.1530741,12.57425 10.7794815,12.43125 10.778963,12.43125 L10.7146667,12.40675 L10.778963,12.38225 L10.778963,12.38225 C10.778963,12.38225 10.9456667,12.31875 11.1302593,12.25475 L11.1302593,12.25475 C11.2228148,12.223 11.320037,12.19125 11.4037778,12.167 L11.4037778,12.167 C11.488037,12.14325 11.5562222,12.12675 11.5992593,12.1265 L11.5992593,12.1265 Z M11.0164444,12.351 C10.9557778,12.37275 10.9026296,12.39225 10.864,12.40675 L10.864,12.40675 C10.8761852,12.4115 10.8899259,12.4165 10.9044444,12.422 L10.9044444,12.422 C11.0011481,12.45775 11.149963,12.511 11.2878889,12.55575 L11.2878889,12.55575 C11.3568519,12.57775 11.4227037,12.59775 11.4776667,12.612 L11.4776667,12.612 C11.5323704,12.62675 11.578,12.635 11.5992593,12.63475 L11.5992593,12.63475 C11.7299259,12.6345 11.8357037,12.53275 11.8357037,12.407 L11.8357037,12.407 C11.8357037,12.28125 11.7299259,12.1795 11.5992593,12.179 L11.5992593,12.179 C11.5704815,12.179 11.5004815,12.19425 11.4190741,12.21775 L11.4190741,12.21775 C11.2959259,12.253 11.1411481,12.3065 11.0164444,12.351 L11.0164444,12.351 Z M10.7986667,12.38225 L10.7890741,12.40675 L10.7986667,12.38225 L10.7986667,12.38225 Z" id="Shape"></path>
                <path d="M9.34888889,13.404 C9.20914815,13.2695 8.98307407,13.2695 8.84359259,13.404 C8.70385185,13.5385 8.70385185,13.75675 8.84359259,13.8915 C8.98307407,14.026 9.20940741,14.026 9.34888889,13.8915 C9.48837037,13.75675 9.48837037,13.5385 9.34888889,13.404 Z" id="Shape"></path>
                <path d="M8.70722222,13.286 C8.76477778,13.2315 8.87703704,13.16625 9.02040741,13.0915 L9.02040741,13.0915 C9.163,13.017 9.33411111,12.936 9.49925926,12.8605 L9.49925926,12.8605 C9.8292963,12.7095 10.134963,12.58225 10.134963,12.58225 L10.1352222,12.58225 L10.2524074,12.5335 L10.2018519,12.64625 C10.2015926,12.647 9.90474074,13.30875 9.67348148,13.72125 L9.67348148,13.72125 C9.5957037,13.85925 9.5282963,13.9675 9.47151852,14.023 L9.47151852,14.023 C9.26074074,14.22625 8.91851852,14.22625 8.70748148,14.02325 L8.70748148,14.02325 C8.49644444,13.81925 8.49644444,13.48925 8.70722222,13.286 L8.70722222,13.286 Z M9.77977778,12.84175 C9.55603704,12.94075 9.27862963,13.06725 9.06862963,13.177 L9.06862963,13.177 C8.92914815,13.24925 8.81688889,13.31725 8.77877778,13.355 L8.77877778,13.355 C8.60792593,13.5205 8.60766667,13.788 8.77877778,13.954 L8.77877778,13.954 C8.95040741,14.11875 9.22807407,14.11875 9.39996296,13.95375 L9.39996296,13.95375 C9.42874074,13.92675 9.47696296,13.858 9.52933333,13.77 L9.52933333,13.77 C9.58248148,13.6815 9.64211111,13.57125 9.70225926,13.45475 L9.70225926,13.45475 C9.82255556,13.22175 9.94492593,12.96325 10.0234815,12.79375 L10.0234815,12.79375 C10.0356667,12.76725 10.0468148,12.74325 10.0569259,12.72175 L10.0569259,12.72175 C9.98640741,12.75175 9.88944444,12.7935 9.77977778,12.84175 L9.77977778,12.84175 Z M10.1087778,12.6075 L10.1551852,12.627 L10.1087778,12.6075 L10.1087778,12.6075 Z" id="Shape"></path>
                <path d="M11.5528519,13.8915 C11.6925926,14.026 11.9184074,14.026 12.0581481,13.8915 C12.1978889,13.75675 12.1978889,13.5385 12.0581481,13.404 C11.9184074,13.2695 11.6925926,13.2695 11.5528519,13.404 C11.4131111,13.5385 11.4128519,13.75675 11.5528519,13.8915 Z" id="Shape"></path>
                <path d="M12.1942593,13.286 C12.405037,13.48925 12.405037,13.8195 12.1942593,14.023 L12.1942593,14.023 C11.9832222,14.22625 11.6412593,14.22625 11.4297037,14.02275 L11.4297037,14.02275 C11.3734444,13.96725 11.306037,13.859 11.2282593,13.721 L11.2282593,13.721 C10.9972593,13.30875 10.7001481,12.64675 10.7001481,12.64675 L10.6495926,12.53325 L10.7665185,12.582 L10.7665185,12.582 C10.767037,12.582 11.0724444,12.7095 11.4024815,12.86025 L11.4024815,12.86025 C11.5676296,12.93575 11.7387407,13.01675 11.8810741,13.09125 L11.8810741,13.09125 C12.0241852,13.16625 12.1367037,13.2315 12.1942593,13.286 L12.1942593,13.286 Z M11.1217037,12.84175 C11.0117778,12.7935 10.9150741,12.75175 10.8448148,12.72175 L10.8448148,12.72175 C10.8549259,12.74325 10.8660741,12.76725 10.8782593,12.79375 L10.8782593,12.79375 C10.9568148,12.96325 11.0791852,13.22175 11.1992222,13.45475 L11.1992222,13.45475 C11.2593704,13.57125 11.3192593,13.68125 11.3724074,13.77 L11.3724074,13.77 C11.4245185,13.85825 11.4727407,13.92675 11.5015185,13.95375 L11.5015185,13.95375 C11.6731481,14.11875 11.9510741,14.11875 12.1227037,13.954 L12.1227037,13.954 C12.2938148,13.78825 12.2932963,13.52075 12.1227037,13.355 L12.1227037,13.355 C12.0843333,13.31725 11.9723333,13.24925 11.8325926,13.177 L11.8325926,13.177 C11.6231111,13.0675 11.3457037,12.941 11.1217037,12.84175 L11.1217037,12.84175 Z M10.7927037,12.6075 L10.7465556,12.627 L10.7927037,12.6075 L10.7927037,12.6075 Z" id="Shape"></path>
                <ellipse id="Oval" cx="10.451" cy="11.40875" rx="1" ry="1"></ellipse>
                <path d="M9.68981481,11.53825 C9.76396296,11.94375 10.165037,12.21425 10.5852963,12.1425 C11.0055556,12.07125 11.2860741,11.68475 11.2119259,11.27925 C11.138037,10.874 10.736963,10.6035 10.3167037,10.67475 C9.89644444,10.7465 9.61566667,11.13275 9.68981481,11.53825 Z M11.0843704,11.301 C11.1460741,11.6385 10.9127407,11.9605 10.5627407,12.02 C10.2127407,12.079 9.87907407,11.854 9.81737037,11.5165 C9.75566667,11.179 9.98951852,10.85725 10.3395185,10.79775 C10.6892593,10.73825 11.0226667,10.9635 11.0843704,11.301 Z" id="Shape"></path>
            </g>
        </g>
    </g>
</svg>