<?xml version="1.0" encoding="UTF-8"?>
<svg width="56px" height="56px" viewBox="0 0 56 56" version="1.1" xmlns="http://www.w3.org/2000/svg" xmlns:xlink="http://www.w3.org/1999/xlink">
    <!-- Generator: Sketch 46.2 (44496) - http://www.bohemiancoding.com/sketch -->
    <title>btn_play copy 3xxhdpi</title>
    <desc>Created with Sketch.</desc>
    <defs></defs>
    <g id="CMS-Components" stroke="none" stroke-width="1" fill="none" fill-rule="evenodd">
        <g id="Artisan's-Stories" transform="translate(-152.000000, -187.000000)">
            <g id="Group-4" transform="translate(0.000000, 8.000000)">
                <g id="btn_play-copy-3" transform="translate(152.000000, 179.000000)">
                    <circle id="Oval-70" fill="#FFFFFF" opacity="0.800000012" cx="28" cy="28" r="28"></circle>
                    <path d="M31.3854801,21.1706398 L38.9079751,32.8664454 L38.9079751,32.8664454 C39.4656565,33.7335159 39.2148471,34.8885055 38.3477766,35.4461869 C38.0466107,35.6398905 37.696086,35.7428836 37.3380051,35.7428836 L22.2930152,35.7428836 L22.2930152,35.7428836 C21.2620836,35.7428836 20.4263485,34.9071485 20.4263485,33.8762169 C20.4263485,33.518136 20.5293416,33.1676113 20.7230452,32.8664454 L28.2455401,21.1706398 L28.2455401,21.1706398 C28.8032215,20.3035693 29.9582112,20.0527599 30.8252817,20.6104414 C31.049946,20.7549407 31.2409808,20.9459755 31.3854801,21.1706398 Z" id="Triangle-1" fill="#BB4225" transform="translate(29.816848, 27.697351) rotate(-270.000000) translate(-29.816848, -27.697351) "></path>
                </g>
            </g>
        </g>
    </g>
</svg>