<?xml version="1.0" encoding="UTF-8"?>
<svg width="16px" height="16px" viewBox="0 0 16 16" version="1.1" xmlns="http://www.w3.org/2000/svg" xmlns:xlink="http://www.w3.org/1999/xlink">
    <!-- Generator: Sketch 45.1 (43504) - http://www.bohemiancoding.com/sketch -->
    <title>Shape</title>
    <desc>Created with Sketch.</desc>
    <defs></defs>
    <g id="Page-1" stroke="none" stroke-width="1" fill="none" fill-rule="evenodd">
        <g id="4.1.-Apply-Credits" transform="translate(-40.000000, -936.000000)" fill-rule="nonzero" fill="#88C343">
            <g id="Group-14" transform="translate(16.000000, 916.000000)">
                <path d="M35.0846253,25.2494276 C35.0846253,25.01498 34.8944855,24.8248403 34.6605613,24.8248403 L29.5121345,24.8248403 C29.2771636,24.8248403 29.0870238,25.01498 29.0870238,25.2494276 C29.0870238,25.4840496 29.2771636,25.6743638 29.5121345,25.6743638 L31.5975666,25.6743638 C32.2091537,25.6743638 32.72445,26.0879614 32.8814461,26.6503565 L29.5121345,26.6503565 C29.2771636,26.6503565 29.0870238,26.8403218 29.0870238,27.0747694 C29.0870238,27.3090425 29.2771636,27.4993568 29.5121345,27.4993568 L32.8376616,27.4993568 C32.6414165,27.9937202 32.1599616,28.3446937 31.5975666,28.3446937 L29.5121345,28.3446937 C29.3380432,28.3446937 29.1817448,28.4504045 29.1175509,28.6121105 C29.0535313,28.7732932 29.093827,28.9573276 29.2197728,29.0769935 L32.6736879,32.3568173 C32.7556748,32.4344432 32.8605133,32.4733434 32.9660496,32.4733434 C33.0776913,32.4733434 33.1896819,32.4295589 33.2735876,32.3414666 C33.4349447,32.1713875 33.428316,31.9025752 33.2582368,31.7413925 L30.5755217,29.1931707 L31.5975666,29.1931707 C32.6333922,29.1931707 33.499662,28.4683718 33.7236432,27.4991823 L34.6603868,27.4991823 C34.8943111,27.4991823 35.0844508,27.3088681 35.0844508,27.074595 C35.0844508,26.8401474 34.8943111,26.6501821 34.6603868,26.6501821 L33.7487626,26.6501821 C33.687883,26.2864743 33.5383877,25.9534681 33.3213842,25.6741894 L34.6603868,25.6741894 C34.8944855,25.6743638 35.0846253,25.4840496 35.0846253,25.2494276 Z M32,20 C27.5887573,20 24,23.5887573 24,28 C24,32.4112427 27.5887573,36 32,36 C36.4112427,36 40,32.4112427 40,28 C40,23.5887573 36.4112427,20 32,20 Z M32,35.1277992 C28.0696888,35.1277992 24.8722008,31.9303112 24.8722008,28 C24.8722008,24.0696888 28.0696888,20.8722008 32,20.8722008 C35.9303112,20.8722008 39.1277992,24.0696888 39.1277992,28 C39.1277992,31.9303112 35.9303112,35.1277992 32,35.1277992 Z" id="Shape"></path>
            </g>
        </g>
    </g>
</svg>