<svg xmlns="http://www.w3.org/2000/svg" width="147" height="147" viewBox="0 0 147 147">
    <g fill="none" fill-rule="evenodd">
        <circle cx="73.5" cy="73.5" r="73.5" fill="#FFF"/>
        <g fill="#9E9E9E" fill-rule="nonzero">
            <g transform="translate(81 54)">
                <path d="M14.327 0h1.042v46.51h-1.042zM15.01 63.023c-3.258 0-5.833-1.639-5.833-3.728 0-2.089 2.554-3.728 5.833-3.728 3.28 0 5.833 1.64 5.833 3.728 0 2.09-2.575 3.728-5.833 3.728zm0-6.394c-2.587 0-4.783 1.218-4.783 2.666s2.187 2.667 4.77 2.667c2.584 0 4.771-1.219 4.771-2.667 0-1.448-2.17-2.666-4.758-2.666z"/>
                <path d="M19.368 58.153l-.308-1.015c3.033-.955 4.917-2.777 4.917-4.751 0-2.973-4.167-5.397-9.296-5.397-5.13 0-9.296 2.42-9.296 5.397 0 1.974 1.883 3.796 4.917 4.751l-.309 1.015c-3.483-1.1-5.65-3.308-5.65-5.766 0-3.622 4.542-6.459 10.338-6.459 5.796 0 10.337 2.82 10.337 6.459 0 2.458-2.166 4.666-5.65 5.766z"/>
                <path d="M.993 63.762a.526.526 0 0 1-.52-.53c0-2.29.675-4.064 2.004-5.279 2.254-2.055 5.546-1.698 5.683-1.698a.53.53 0 0 1 .43.583.524.524 0 0 1-.547.47c-.029 0-2.979-.306-4.879 1.435-1.096 1.002-1.666 2.514-1.666 4.484a.526.526 0 0 1-.505.535zM.527 57.291a.526.526 0 0 1-.521-.53 4.756 4.756 0 0 1 1.292-3.508c1.425-1.427 3.491-1.401 3.575-1.397.138.002.27.06.365.161a.534.534 0 0 1-.383.9 4.308 4.308 0 0 0-2.832 1.1 3.737 3.737 0 0 0-.963 2.743c0 .143-.057.28-.157.38-.1.1-.236.155-.376.151zM.527 51.164a.526.526 0 0 1-.521-.53 3.162 3.162 0 0 1 1.2-2.676c2.162-1.639 6.504-.331 6.667-.272.26.096.4.383.32.652a.52.52 0 0 1-.62.363c-1.113-.34-4.321-.985-5.767.11a2.142 2.142 0 0 0-.746 1.822c0 .143-.057.28-.157.38-.1.1-.236.154-.376.15z"/>
                <ellipse cx="12.643" cy="59.58" rx="1" ry="1"/>
                <ellipse cx="16.731" cy="59.58" rx="1" ry="1"/>
                <path d="M28.627 63.682a.526.526 0 0 1-.521-.531c0-1.975-.558-3.486-1.667-4.488-1.904-1.741-4.837-1.423-4.866-1.423a.52.52 0 0 1-.475-.223.542.542 0 0 1-.048-.53.524.524 0 0 1 .427-.308c.141 0 3.429-.361 5.683 1.698 1.33 1.214 2.004 2.972 2.004 5.278a.536.536 0 0 1-.16.379.515.515 0 0 1-.377.148zM29.093 57.21a.516.516 0 0 1-.376-.15.536.536 0 0 1-.157-.38 3.732 3.732 0 0 0-.98-2.748 4.328 4.328 0 0 0-2.828-1.095.534.534 0 0 1-.383-.9.516.516 0 0 1 .366-.162c.088 0 2.15-.025 3.575 1.397a4.756 4.756 0 0 1 1.292 3.508.526.526 0 0 1-.509.53zM29.093 51.083a.516.516 0 0 1-.376-.15.536.536 0 0 1-.157-.38 2.141 2.141 0 0 0-.767-1.805c-1.445-1.113-4.65-.467-5.766-.128a.52.52 0 0 1-.621-.362.533.533 0 0 1 .32-.652c.184-.056 4.526-1.363 6.667.276a3.162 3.162 0 0 1 1.2 2.675.526.526 0 0 1-.5.526z"/>
            </g>
            <path d="M47.657 94.367c-2.972 1.262-5.311 1.45-6.81 1.501-5.332.18-8.788-4.427-6.576-9.274 1.316-2.889 3.607-5.407 5.757-7.827C47.71 70.12 55.535 61.6 63.238 52.973c.422-.472.526-1.62.249-2.205-.253-.534-1.215-1.009-1.876-1.026-4.345-.113-7.71-2.58-9.039-6.795-1.187-3.76.232-7.431 3.851-9.962 4.014-2.805 7.631-3.054 11.064-.657.781.546 1.577 1.242 2.09 1.99.7.962 1.403 2.068.158 3.084-1.133.74-2.154-.296-2.827-.896-2.264-2.016-4.73-2.643-7.073-1.465-2.966 1.491-4.172 3.741-3.64 6.79.557 3.188 3.696 5.326 6.815 4.458 1.965-.546 3.162.062 3.713 1.91.538 1.804 1.585 2.395 3.502 2.503 12.452.702 24.894 1.564 37.337 2.375 1.456.095 2.942.052 4.357.344 3.48.718 5.538 3.029 5.795 6.245.249 3.136-1.332 5.527-4.633 6.932l-65.423 27.77zm64.127-31.194c1.604-.676 2.98-1.416 2.7-3.37-.293-2.03-1.764-3.08-4.011-3.213-12.884-.758-25.77-1.456-38.645-2.382-3.232-.232-5.52.58-7.62 3.104-4.167 5.016-8.622 9.79-12.96 14.664C47 76.749 42.775 81.545 38.486 86.28c-1.442 1.588-1.514 3.272-.542 4.981.968 1.706 2.644 1.537 4.265 1.16.808-.188 1.622-.404 2.383-.727l67.193-28.522z"/>
        </g>
    </g>
</svg>
