<?xml version="1.0" encoding="UTF-8"?>
<svg width="147px" height="147px" viewBox="0 0 147 147" version="1.1" xmlns="http://www.w3.org/2000/svg" xmlns:xlink="http://www.w3.org/1999/xlink">
    <!-- Generator: Sketch 46.2 (44496) - http://www.bohemiancoding.com/sketch -->
    <title>Group 4</title>
    <desc>Created with Sketch.</desc>
    <defs></defs>
    <g id="Page-1" stroke="none" stroke-width="1" fill="none" fill-rule="evenodd">
        <g id="Empty-Bag" transform="translate(-107.000000, -121.000000)">
            <g id="Group-4" transform="translate(107.000000, 121.000000)">
                <circle id="Oval-3" fill="#FFFFFF" cx="73.5" cy="73.5" r="73.5"></circle>
                <g id="Group-3" transform="translate(16.000000, 14.000000)" fill-rule="nonzero" fill="#9E9E9E">
                    <g id="Group-2" transform="translate(65.000000, 40.000000)">
                        <rect id="Rectangle-path" x="14.3267121" y="0" width="1.04166667" height="46.5099983"></rect>
                        <path d="M15.0100455,63.0233846 C11.7517121,63.0233846 9.17671215,61.3843692 9.17671215,59.2952615 C9.17671215,57.2061538 11.7308788,55.5671385 15.0100455,55.5671385 C18.2892121,55.5671385 20.8433788,57.2061538 20.8433788,59.2952615 C20.8433788,61.3843692 18.2683788,63.0233846 15.0100455,63.0233846 Z M15.0100455,56.6286769 C12.4225455,56.6286769 10.2267121,57.8473231 10.2267121,59.2952615 C10.2267121,60.7432 12.4142121,61.9618462 14.9975455,61.9618462 C17.5808788,61.9618462 19.7683788,60.7432 19.7683788,59.2952615 C19.7683788,57.8473231 17.5975455,56.6286769 15.0100455,56.6286769 Z" id="Shape"></path>
                        <path d="M19.3683788,58.1530462 L19.0600455,57.1382154 C22.0933788,56.1828308 23.9767121,54.3612308 23.9767121,52.3867692 C23.9767121,49.4144615 19.8100455,46.9899077 14.6808788,46.9899077 C9.55171215,46.9899077 5.38504548,49.4102154 5.38504548,52.3867692 C5.38504548,54.3612308 7.26837881,56.1828308 10.3017121,57.1382154 L9.99337881,58.1530462 C6.51004548,57.0532923 4.34337881,54.8452923 4.34337881,52.3867692 C4.34337881,48.7648 8.88504548,45.9283692 14.6808788,45.9283692 C20.4767121,45.9283692 25.0183788,48.7478154 25.0183788,52.3867692 C25.0183788,54.8452923 22.8517121,57.0532923 19.3683788,58.1530462 Z" id="Shape"></path>
                        <path d="M0.993378813,63.7622154 C0.705730506,63.7622154 0.47254548,63.5245819 0.47254548,63.2314462 C0.47254548,60.9427692 1.14754548,59.1678769 2.47671215,57.9534769 C4.73087881,55.8983385 8.02254548,56.2550154 8.16004548,56.2550154 C8.43190181,56.3027716 8.62006453,56.558264 8.58911503,56.8376176 C8.55816553,57.1169712 8.3188402,57.3232781 8.04337881,57.3080615 C8.01421215,57.3080615 5.06421215,57.0023385 3.16421215,58.7432615 C2.06837881,59.7453538 1.49754548,61.2569846 1.49754548,63.2272 C1.49995314,63.5154747 1.27612274,63.7530007 0.993378813,63.7622154 L0.993378813,63.7622154 Z" id="Shape"></path>
                        <path d="M0.526712146,57.2910769 C0.239063839,57.2910769 0.00587881311,57.0534434 0.00587881311,56.7603077 C-0.0585676706,55.45939 0.409117107,54.1894636 1.29754548,53.2529846 C2.72254548,51.8262769 4.78921215,51.8517538 4.87254548,51.856 C5.01068477,51.8582344 5.14229316,51.916309 5.23840932,52.0174441 C5.33452549,52.1185792 5.38727339,52.2544876 5.38504548,52.3952615 C5.37604193,52.6864342 5.14174257,52.917683 4.85587881,52.9175385 C3.81264771,52.9263735 2.80720607,53.3166341 2.02254548,54.0172923 C1.3465591,54.7586749 0.998636973,55.7502134 1.06004548,56.7603077 C1.0600859,56.9033116 1.00349998,57.0402818 0.903104355,57.1401947 C0.802708725,57.2401077 0.666998614,57.294509 0.526712146,57.2910769 Z" id="Shape"></path>
                        <path d="M0.526712146,51.1638769 C0.239063839,51.1638769 0.00587881311,50.9262434 0.00587881311,50.6331077 C-0.0543821813,49.5937562 0.395159482,48.5916241 1.20587881,47.9580308 C3.36837881,46.3190154 7.71004548,47.6268308 7.87254548,47.6862769 C8.13227966,47.7824445 8.27309718,48.0685936 8.19338512,48.3382411 C8.11367306,48.6078886 7.8411846,48.7671519 7.57254548,48.7011077 C6.46004548,48.3614154 3.25171215,47.716 1.80587881,48.8115077 C1.27857291,49.2568678 0.999736817,49.9378884 1.06004548,50.6331077 C1.0600859,50.7761116 1.00349998,50.9130818 0.903104355,51.0129947 C0.802708725,51.1129077 0.666998614,51.167309 0.526712146,51.1638769 Z" id="Shape"></path>
                        <ellipse id="Oval" cx="12.6433788" cy="59.5797538" rx="1" ry="1"></ellipse>
                        <ellipse id="Oval" cx="16.7308788" cy="59.5797538" rx="1" ry="1"></ellipse>
                        <path d="M28.6267121,63.6815385 C28.3390638,63.6815385 28.1058788,63.443905 28.1058788,63.1507692 C28.1058788,61.1763077 27.5475455,59.6646769 26.4392121,58.6625846 C24.5350455,56.9216615 21.6017121,57.2401231 21.5725455,57.2401231 C21.3864696,57.2575686 21.2053956,57.172525 21.0975322,57.0170272 C20.9896688,56.8615294 20.9714031,56.6592013 21.0496156,56.4862579 C21.127828,56.3133146 21.2906363,56.1960302 21.4767121,56.1785846 C21.6183788,56.1785846 24.9058788,55.8176615 27.1600455,57.8770462 C28.4892121,59.0914462 29.1642121,60.8493538 29.1642121,63.1550154 C29.1631613,63.2980388 29.1055134,63.4345769 29.0043294,63.5336945 C28.9031453,63.6328121 28.7669902,63.6861193 28.6267121,63.6815385 L28.6267121,63.6815385 Z" id="Shape"></path>
                        <path d="M29.0933788,57.2104 C28.9530923,57.2138321 28.8173822,57.1594308 28.7169866,57.0595178 C28.616591,56.9596048 28.5600051,56.8226347 28.5600455,56.6796308 C28.6186495,55.6655642 28.2644319,54.6717309 27.5808788,53.9323692 C26.7957448,53.235829 25.7926263,52.8474023 24.7517121,52.8368615 C24.4658484,52.8370061 24.231549,52.6057573 24.2225455,52.3145846 C24.2203176,52.1738106 24.2730655,52.0379023 24.3691816,51.9367672 C24.4652978,51.835632 24.5969062,51.7775574 24.7350455,51.7753231 C24.8225455,51.7753231 26.8850455,51.7498462 28.3100455,53.1723077 C29.1984739,54.1087867 29.6661586,55.3787131 29.6017121,56.6796308 C29.6017936,56.967863 29.376134,57.2034824 29.0933788,57.2104 Z" id="Shape"></path>
                        <path d="M29.0933788,51.0832 C28.9530923,51.0866321 28.8173822,51.0322308 28.7169866,50.9323178 C28.616591,50.8324048 28.5600051,50.6954347 28.5600455,50.5524308 C28.6097433,49.8592714 28.3233782,49.1852121 27.7933788,48.7478154 C26.3475455,47.6353231 23.1433788,48.2807385 22.0267121,48.6204308 C21.758073,48.686475 21.4855846,48.5272117 21.4058725,48.2575642 C21.3261604,47.9879167 21.466978,47.7017676 21.7267121,47.6056 C21.9100455,47.5504 26.2517121,46.2425846 28.3933788,47.8816 C29.2040981,48.5151933 29.6536398,49.5173254 29.5933788,50.5566769 C29.5913763,50.8400719 29.3712536,51.0718713 29.0933788,51.0832 Z" id="Shape"></path>
                    </g>
                    <path d="M18.5616761,69.4258292 C15.3326761,69.4258292 13.1056761,68.6858292 11.7066761,68.1468292 C6.72767606,66.2288292 5.34667606,60.6378292 9.27667606,57.0398292 C11.6166761,54.8948292 14.7096761,53.4728292 17.6346761,52.0848292 C28.0846761,47.1268292 38.6156761,42.3428292 49.0786761,37.4108292 C49.6506761,37.1408292 50.1956761,36.1238292 50.1686761,35.4778292 C50.1446761,34.8878292 49.4446761,34.0748292 48.8426761,33.8008292 C44.8866761,31.9988292 42.7546761,28.4128292 43.1776761,24.0138292 C43.5536761,20.0888292 46.2946761,17.2638292 50.6146761,16.3488292 C55.4056761,15.3348292 58.8326761,16.5188292 61.0556761,20.0668292 C61.5616761,20.8748292 62.0226761,21.8258292 62.2016761,22.7138292 C62.4696761,23.8738292 62.6856761,25.1668292 61.1426761,25.6158292 C59.8106761,25.8548292 59.2756761,24.5018292 58.8906761,23.6858292 C57.5936761,20.9458292 55.5686761,19.4048292 52.9526761,19.5738292 C49.6396761,19.7878292 47.6496761,21.3878292 46.9486761,24.4028292 C46.2156761,27.5538292 48.2696761,30.7488292 51.4796761,31.1688292 C53.5016761,31.4338292 54.3656761,32.4608292 54.1506761,34.3778292 C53.9416761,36.2478292 54.6746761,37.2018292 56.3966761,38.0498292 C67.5846761,43.5618292 78.7006761,49.2158292 89.8376761,54.8248292 C91.1406761,55.4808292 92.5256761,56.0218292 93.7136761,56.8438292 C96.6366761,58.8648292 97.6286761,61.7958292 96.6076761,64.8568292 C95.6116761,67.8408292 93.2226761,69.4238292 89.6346761,69.4268292 L18.5616761,69.4268292 L18.5616761,69.4258292 Z M89.7796761,65.7678292 C91.5196761,65.7718292 93.0756761,65.6288292 93.5806761,63.7208292 C94.1056761,61.7368292 93.1616761,60.1958292 91.1446761,59.1958292 C79.5816761,53.4638292 67.9916761,47.7858292 56.5026761,41.9038292 C53.6186761,40.4268292 51.1946761,40.2798292 48.2756761,41.7838292 C42.4796761,44.7718292 36.5136761,47.4268292 30.6166761,50.2178292 C24.8406761,52.9518292 19.0766761,55.7148292 13.2776761,58.3988292 C11.3306761,59.2968292 10.6066761,60.8188292 10.8326761,62.7718292 C11.0576761,64.7208292 12.6666761,65.2198292 14.3056761,65.5058292 C15.1226761,65.6488292 15.9566761,65.7678292 16.7836761,65.7678292 L89.7796761,65.7678292 Z" id="Shape" transform="translate(51.998707, 42.713415) rotate(-23.000000) translate(-51.998707, -42.713415) "></path>
                </g>
            </g>
        </g>
    </g>
</svg>