<?xml version="1.0" encoding="UTF-8"?>
<svg width="16px" height="15px" viewBox="0 0 16 15" version="1.1" xmlns="http://www.w3.org/2000/svg" xmlns:xlink="http://www.w3.org/1999/xlink">
    <!-- Generator: Sketch 45.1 (43504) - http://www.bohemiancoding.com/sketch -->
    <title>Shape</title>
    <desc>Created with Sketch.</desc>
    <defs></defs>
    <g id="Page-1" stroke="none" stroke-width="1" fill="none" fill-rule="evenodd">
        <g id="5.1.-Gift-Wrap" transform="translate(-40.000000, -1181.000000)" fill-rule="nonzero" fill="#4CAF50">
            <g id="Group-10" transform="translate(16.000000, 1160.000000)">
                <g id="Group-2" transform="translate(16.000000, 12.000000)">
                    <path d="M24,12.0375855 L20.738152,12.0375855 C21.1630333,11.4481108 21.215494,10.6769085 20.87418,10.0378946 C20.5328659,9.39888061 19.8546894,8.99860683 19.1157003,9.00000364 C17.4487689,9.00000364 16.4871591,10.3174593 16,11.3003885 C15.5128409,10.3174593 14.5512311,9.00000364 12.8842997,9.00000364 C12.1453106,8.99860683 11.4671341,9.39888061 11.12582,10.0378946 C10.784506,10.6769085 10.8369667,11.4481108 11.261848,12.0375855 L8,12.0375855 L8,16.4070778 L9.03786074,16.4070778 L9.03786074,24 L22.9621393,24 L22.9621393,16.4070778 L24,16.4070778 L24,12.0375855 Z M19.1157003,9.82599463 C19.7421202,9.82599463 20.2499338,10.3210761 20.2499338,10.9317901 C20.2499338,11.542504 19.7421202,12.0375855 19.1157003,12.0375855 L16.5930633,12.0375855 C16.91713,11.2466991 17.6944665,9.82599463 19.1157003,9.82599463 Z M11.7511252,10.9245626 C11.7522908,10.3148902 12.2589482,9.82093609 12.8842997,9.8197997 C14.2949431,9.8197997 15.0786338,11.2405042 15.4048186,12.0313906 L12.8842997,12.0313906 C12.2581223,12.0302516 11.7511241,11.5350413 11.7511252,10.9245626 Z M8.84723325,15.5810868 L8.84723325,12.8635765 L15.5763834,12.8635765 L15.5763834,15.5810868 L8.84723325,15.5810868 Z M9.88509399,23.174009 L9.88509399,16.4070778 L15.5763834,16.4070778 L15.5763834,23.174009 L9.88509399,23.174009 Z M22.114906,23.174009 L16.4236166,23.174009 L16.4236166,16.4070778 L22.114906,16.4070778 L22.114906,23.174009 Z M23.1527667,15.5810868 L16.4236166,15.5810868 L16.4236166,12.8635765 L23.1527667,12.8635765 L23.1527667,15.5810868 Z" id="Shape"></path>
                </g>
            </g>
        </g>
    </g>
</svg>