<?xml version="1.0" encoding="UTF-8"?>
<svg width="20px" height="25px" viewBox="0 0 20 25" version="1.1" xmlns="http://www.w3.org/2000/svg" xmlns:xlink="http://www.w3.org/1999/xlink">
    <!-- Generator: Sketch 46.2 (44496) - http://www.bohemiancoding.com/sketch -->
    <title>Group 3</title>
    <desc>Created with Sketch.</desc>
    <defs></defs>
    <g id="Payment-New" stroke="none" stroke-width="1" fill="none" fill-rule="evenodd">
        <g id="Payment-Options---Landing" transform="translate(-16.000000, -455.000000)" fill-rule="nonzero" fill="#757575">
            <g id="Group-3" transform="translate(16.000000, 455.000000)">
                <path d="M16.8253521,7.80370448 L16.8253521,6.71481559 C16.7491823,2.98465667 13.660928,2.46716228e-16 9.87746479,0 C6.0940016,-2.46716228e-16 3.00574729,2.98465667 2.92957746,6.71481559 L2.92957746,7.80370448 C1.25336647,8.02607975 0.00181194844,9.43588372 0,11.1037045 L0,21.58426 C0,23.4252092 1.51340366,24.9175934 3.38028169,24.9175934 L16.3746479,24.9175934 C18.2415259,24.9175934 19.7549296,23.4252092 19.7549296,21.58426 L19.7549296,11.1037045 C19.7531176,9.43588372 18.5015631,8.02607975 16.8253521,7.80370448 Z M9.87605634,2.08426004 C12.4681741,2.08732126 14.5687266,4.15869945 14.571831,6.71481559 L14.571831,7.77037115 L5.18028169,7.77037115 L5.18028169,6.71481559 C5.18338603,4.15869945 7.28393856,2.08732126 9.87605634,2.08426004 Z M17.5014085,21.58426 C17.5014085,22.1979098 16.9969406,22.6953711 16.3746479,22.6953711 L3.37746479,22.6953711 C2.75517211,22.6953711 2.25070423,22.1979098 2.25070423,21.58426 L2.25070423,11.1037045 C2.25070423,10.4900548 2.75517211,9.99259337 3.37746479,9.99259337 L16.3746479,9.99259337 C16.9969406,9.99259337 17.5014085,10.4900548 17.5014085,11.1037045 L17.5014085,21.58426 Z" id="Shape"></path>
                <path d="M9.87605634,13.0481489 C8.52341507,13.0481494 7.30401676,13.8517927 6.7866469,15.0842213 C6.26927704,16.3166498 6.55586324,17.7350616 7.51272802,18.6778416 C8.46959281,19.6206217 9.90822322,19.902032 11.1575734,19.3908093 C12.4069237,18.8795866 13.2208579,17.6764475 13.2197183,16.3425934 C13.216613,14.5233075 11.7209679,13.0496777 9.87605634,13.0481489 L9.87605634,13.0481489 Z M9.87605634,17.4175934 C9.27398817,17.4175934 8.78591549,16.9362995 8.78591549,16.3425934 C8.78591549,15.7488873 9.27398817,15.2675934 9.87605634,15.2675934 C10.4781245,15.2675934 10.9661972,15.7488873 10.9661972,16.3425934 C10.9661972,16.9362995 10.4781245,17.4175934 9.87605634,17.4175934 L9.87605634,17.4175934 Z" id="Shape"></path>
            </g>
        </g>
    </g>
</svg>