<?xml version="1.0" encoding="UTF-8"?>
<svg width="13px" height="19px" viewBox="0 0 13 19" version="1.1" xmlns="http://www.w3.org/2000/svg" xmlns:xlink="http://www.w3.org/1999/xlink">
    <!-- Generator: Sketch 46.2 (44496) - http://www.bohemiancoding.com/sketch -->
    <title>Group 18</title>
    <desc>Created with Sketch.</desc>
    <defs></defs>
    <g id="Page-1" stroke="none" stroke-width="1" fill="none" fill-rule="evenodd">
        <g id="1.-Your-Bag---Landing" transform="translate(-326.000000, -44.000000)">
            <g id="Group-18" transform="translate(320.000000, 41.000000)">
                <rect id="Rectangle-20" x="0" y="0" width="24" height="24"></rect>
                <path d="M18.7636364,4.840625 C18.9409091,5.196875 19,5.553125 19,5.96875 L19,21.109375 C19,21.465625 18.8227273,21.7625 18.4681818,21.940625 C18.35,22 18.2318182,22 18.1136364,22 C17.8772727,22 17.7,21.940625 17.5227273,21.7625 L12.5,17.546875 L7.47727273,21.7625 C7.24090909,22 6.82727273,22.059375 6.53181818,21.88125 C6.17727273,21.7625 6,21.465625 6,21.109375 L6,5.96875 C6,4.30625 7.35909091,3 8.95454545,3 L16.0454545,3 C16.6363636,3 17.1681818,3.178125 17.6409091,3.475 L16.0454545,4.78125 C16.0454545,4.78125 13.6818182,4.78125 8.95454545,4.78125 C8.30454545,4.78125 7.77272727,5.315625 7.77272727,5.96875 L7.77272727,19.15 L11.9090909,15.70625 C12.2636364,15.409375 12.7363636,15.409375 13.0909091,15.70625 L17.2272727,19.15 L17.2272727,6.146875 L18.7636364,4.840625 Z" id="Shape" fill="#757575" fill-rule="nonzero"></path>
            </g>
        </g>
    </g>
</svg>