<?xml version="1.0" encoding="UTF-8"?>
<svg width="41px" height="26px" viewBox="0 0 41 26" version="1.1" xmlns="http://www.w3.org/2000/svg" xmlns:xlink="http://www.w3.org/1999/xlink">
    <!-- Generator: Sketch 48.2 (47327) - http://www.bohemiancoding.com/sketch -->
    <title>Shape</title>
    <desc>Created with Sketch.</desc>
    <defs></defs>
    <g id="4.-Barcode-Number-Filled" stroke="none" stroke-width="1" fill="none" fill-rule="evenodd" transform="translate(-295.000000, -104.000000)">
        <g id="Group-3" transform="translate(0.000000, 80.000000)" fill="#8099AD" fill-rule="nonzero">
            <path d="M331.444444,24 L299.555556,24 C297.043622,24 295,26.0582702 295,28.5882083 L295,45.4117917 C295,47.9421886 297.043622,50 299.555556,50 L331.444444,50 C333.956378,50 336,47.9421886 336,45.4117917 L336,28.5882083 C336,26.0582702 333.956378,24 331.444444,24 Z M313.222222,27.0584997 L317.777778,27.0584997 L317.777778,31.646708 L313.222222,31.646708 L313.222222,27.0584997 Z M313.222222,34.7056664 L317.777778,34.7056664 L317.777778,39.2938747 L313.222222,39.2938747 L313.222222,34.7056664 Z M305.629478,27.0584997 L310.185033,27.0584997 L310.185033,31.646708 L305.629478,31.646708 L305.629478,27.0584997 Z M305.629478,34.7056664 L310.185033,34.7056664 L310.185033,39.2938747 L305.629478,39.2938747 L305.629478,34.7056664 Z M302.592744,46.9410415 L299.555556,46.9410415 C298.718244,46.9410415 298.037189,46.2551044 298.037189,45.4113329 L298.037189,42.3523744 L302.592744,42.3523744 L302.592744,46.9410415 Z M302.592744,39.2938747 L298.037189,39.2938747 L298.037189,34.7056664 L302.592744,34.7056664 L302.592744,39.2938747 Z M302.592744,31.646708 L298.037189,31.646708 L298.037189,28.5877495 C298.037189,27.7444368 298.718244,27.0584997 299.555556,27.0584997 L302.592744,27.0584997 L302.592744,31.646708 Z M325.370522,46.9410415 L305.629478,46.9410415 L305.629478,42.3523744 L325.370067,42.3523744 L325.370067,46.9410415 L325.370522,46.9410415 Z M325.370522,39.2938747 L320.814511,39.2938747 L320.814511,34.7056664 L325.370522,34.7056664 L325.370522,39.2938747 Z M325.370522,31.646708 L320.814511,31.646708 L320.814511,27.0584997 L325.370522,27.0584997 L325.370522,31.646708 Z M332.963267,45.4113329 C332.963267,46.2551044 332.282211,46.9410415 331.444444,46.9410415 L328.407256,46.9410415 L328.407256,42.3523744 L332.963267,42.3523744 L332.963267,45.4113329 Z M332.963267,39.2938747 L328.407256,39.2938747 L328.407256,34.7056664 L332.963267,34.7056664 L332.963267,39.2938747 Z M332.963267,31.646708 L328.407256,31.646708 L328.407256,27.0584997 L331.444444,27.0584997 C332.282211,27.0584997 332.963267,27.7444368 332.963267,28.5877495 L332.963267,31.646708 Z" id="Shape"></path>
        </g>
    </g>
</svg>