<?xml version="1.0" encoding="UTF-8"?>
<svg width="37px" height="26px" viewBox="0 0 37 26" version="1.1" xmlns="http://www.w3.org/2000/svg" xmlns:xlink="http://www.w3.org/1999/xlink">
    <!-- Generator: Sketch 48.2 (47327) - http://www.bohemiancoding.com/sketch -->
    <title>Shape</title>
    <desc>Created with Sketch.</desc>
    <defs></defs>
    <g id="4.-Barcode-Number-Filled" stroke="none" stroke-width="1" fill="none" fill-rule="evenodd" transform="translate(-24.000000, -104.000000)" opacity="0.300000012">
        <g id="Group-3" transform="translate(0.000000, 80.000000)" fill="#8099AD" fill-rule="nonzero">
            <path d="M56.9237875,28.0230947 L49.6281755,28.0230947 L48.8799076,25.3210162 C48.6928406,24.5404157 47.9445727,24 47.0715935,24 L36.9076212,24 C36.034642,24 35.2863741,24.5404157 35.0993072,25.3210162 L34.3510393,28.0230947 L27.1177829,28.0230947 C25.3718245,28.0230947 24,29.3441109 24,31.0254042 L24,46.9976905 C24,48.6789838 25.3718245,50 27.1177829,50 L56.9861432,50 C58.7321016,50 60.1039261,48.6789838 60.1039261,46.9976905 L60.1039261,31.0254042 C60.0415704,29.404157 58.669746,28.0230947 56.9237875,28.0230947 Z M42.0207852,45.9769053 C37.7182448,45.9769053 34.2263279,42.6143187 34.2263279,38.4711316 C34.2263279,34.3279446 37.7182448,30.965358 42.0207852,30.965358 C46.3233256,30.965358 49.8152425,34.3279446 49.8152425,38.4711316 C49.8152425,42.6143187 46.3233256,45.9769053 42.0207852,45.9769053 Z" id="Shape"></path>
        </g>
    </g>
</svg>