<?xml version="1.0" encoding="UTF-8"?>
<svg width="24px" height="22px" viewBox="0 0 24 22" version="1.1" xmlns="http://www.w3.org/2000/svg" xmlns:xlink="http://www.w3.org/1999/xlink">
    <!-- Generator: Sketch 46.2 (44496) - http://www.bohemiancoding.com/sketch -->
    <title>Shape</title>
    <desc>Created with Sketch.</desc>
    <defs></defs>
    <g id="Page-1" stroke="none" stroke-width="1" fill="none" fill-rule="evenodd" opacity="0.5">
        <g id="2.-Scan-QR-Code-Screen" transform="translate(-16.000000, -459.000000)" fill-rule="nonzero" fill="#8099AD">
            <path d="M28.943582,459 C22.8468005,459 17.887164,463.93463 17.887164,470 L16,470 L19.2,473.98411 L22.4003029,470 L20.0078758,470 C20.0078758,465.097616 24.0160545,461.109589 28.9438849,461.109589 C33.8711094,461.109589 37.879894,465.097616 37.879894,470 C37.879894,474.902384 33.8711094,478.890411 28.9438849,478.890411 C26.5390382,478.890411 24.2823173,477.953753 22.5908368,476.252219 L21.0832261,477.736164 C23.1763726,479.84063 25.9677395,481 28.943582,481 C35.0397577,481 40,476.06537 40,470 C40,463.93463 35.0397577,459 28.943582,459 Z M27.8833775,464.173616 L27.8833775,470.508411 L31.5141234,473.386795 L32.8351382,471.736795 L30.0034835,469.49189 L30.0034835,464.173616 L27.8833775,464.173616 Z" id="Shape"></path>
        </g>
    </g>
</svg>