<?xml version="1.0" encoding="UTF-8"?>
<svg width="13px" height="17px" viewBox="0 0 13 17" version="1.1" xmlns="http://www.w3.org/2000/svg" xmlns:xlink="http://www.w3.org/1999/xlink">
    <!-- Generator: Sketch 46.2 (44496) - http://www.bohemiancoding.com/sketch -->
    <title>Group 4</title>
    <desc>Created with Sketch.</desc>
    <defs></defs>
    <g id="Page-1" stroke="none" stroke-width="1" fill="none" fill-rule="evenodd">
        <g id="1.-Navigation-Drawer---Not-Loggedin" transform="translate(-260.000000, -80.000000)">
            <g id="kurta_category" transform="translate(0.000000, 24.000000)">
                <g id="Group-4" transform="translate(254.000000, 52.000000)">
                    <rect id="Rectangle-3" x="0" y="0" width="24" height="24"></rect>
                    <path d="M19,16.9272146 C19,16.1508589 18.43125,15.7218202 17.740625,15.2927815 C17.253125,14.9863253 16.96875,14.4551345 16.96875,13.9035134 L16.96875,10.7980905 C16.96875,8.7141883 15.546875,6.89588149 13.515625,6.42598197 C14.04375,5.79263915 13.9421875,4.87327054 13.3328125,4.34207978 C12.7234375,3.81088903 11.7890625,3.91304109 11.2609375,4.54638392 C10.79375,5.1184355 10.8140625,5.93565205 11.3015625,6.48727321 C9.3515625,7.0593248 8.03125,8.87763161 8.03125,10.920673 L8.03125,13.9035134 C8.03125,14.475565 7.746875,15.0067557 7.259375,15.2927815 C6.56875,15.7218202 6,16.1508589 6,16.9272146 C6,17.887444 6.8328125,19.0111168 10.509375,19.2971426 C10.6921875,20.4003849 11.7484375,21.1563102 12.865625,20.9724365 C13.71875,20.8294236 14.36875,20.1552199 14.53125,19.2971426 C18.1671875,19.0111168 19,17.9078744 19,16.9272146 Z M12.3984375,4.83240971 C12.7640625,4.83240971 13.0484375,5.1184355 13.0484375,5.48618295 C13.0484375,5.85393039 12.7640625,6.13995618 12.3984375,6.13995618 C12.0328125,6.13995618 11.7484375,5.85393039 11.7484375,5.48618295 C11.7484375,5.13886591 12.0328125,4.85284012 12.3984375,4.83240971 Z M12.5,20.1960808 C11.971875,20.1960808 11.5046875,19.8487637 11.3421875,19.3584338 C11.7078125,19.3788642 12.09375,19.3788642 12.5,19.3788642 C12.90625,19.3788642 13.2921875,19.3788642 13.6578125,19.3584338 C13.4953125,19.8691942 13.028125,20.1960808 12.5,20.1960808 Z M12.5,18.5616477 C8.9859375,18.5616477 6.8125,17.9283049 6.8125,16.9272146 C6.8125,16.6207584 6.9953125,16.4164542 7.6859375,15.9669851 C8.396875,15.517516 8.84375,14.7411603 8.84375,13.883083 L8.84375,10.920673 C8.84375,8.8572012 10.46875,7.16147686 12.459375,7.14104645 L12.5,7.14104645 C14.5109375,7.14104645 16.15625,8.79590996 16.15625,10.8185209 L16.15625,13.9239438 C16.15625,14.7820212 16.603125,15.5583769 17.3140625,16.007846 C18.0046875,16.4368847 18.1875,16.6411888 18.1875,16.9680754 C18.1875,17.9487353 16.0140625,18.5616477 12.5,18.5616477 Z" id="Shape" fill="#FFFFFF" fill-rule="nonzero"></path>
                </g>
            </g>
        </g>
    </g>
</svg>