<?xml version="1.0" encoding="UTF-8"?>
<svg width="24px" height="24px" viewBox="0 0 24 24" version="1.1" xmlns="http://www.w3.org/2000/svg" xmlns:xlink="http://www.w3.org/1999/xlink">
    <!-- Generator: Sketch 46.2 (44496) - http://www.bohemiancoding.com/sketch -->
    <title>Group 10</title>
    <desc>Created with Sketch.</desc>
    <defs></defs>
    <g id="Page-1" stroke="none" stroke-width="1" fill="none" fill-rule="evenodd">
        <g id="3.-Wishlist-Screen" transform="translate(-145.000000, -709.000000)">
            <g id="Group-6" transform="translate(0.000000, 506.000000)">
                <g id="Group-10" transform="translate(144.000000, 203.000000)">
                    <circle id="Oval" fill="#212121" opacity="0.200000003" cx="13" cy="12" r="12"></circle>
                    <g id="Group-37">
                        <g id="Group-9">
                            <rect id="Rectangle-3" x="0" y="0" width="24" height="24"></rect>
                            <path d="M17.5,15.3092369 C16.8666667,15.3092369 16.3,15.5502008 15.8666667,15.9277108 L9.925,12.5943775 C9.96666667,12.4096386 10,12.2248996 10,12.0321285 C10,11.8393574 9.96666667,11.6546185 9.925,11.4698795 L15.8,8.1686747 C16.25,8.57028112 16.8416667,8.81927711 17.5,8.81927711 C18.8833333,8.81927711 20,7.74297189 20,6.40963855 C20,5.07630522 18.8833333,4 17.5,4 C16.1166667,4 15,5.07630522 15,6.40963855 C15,6.60240964 15.0333333,6.78714859 15.075,6.97188755 L9.2,10.2730924 C8.75,9.87148594 8.15833333,9.62248996 7.5,9.62248996 C6.11666667,9.62248996 5,10.6987952 5,12.0321285 C5,13.3654618 6.11666667,14.4417671 7.5,14.4417671 C8.15833333,14.4417671 8.75,14.1927711 9.2,13.7911647 L15.1333333,17.1325301 C15.0916667,17.3012048 15.0666667,17.4779116 15.0666667,17.6546185 C15.0666667,18.9477912 16.1583333,20 17.5,20 C18.8416667,20 19.9333333,18.9477912 19.9333333,17.6546185 C19.9333333,16.3614458 18.8416667,15.3092369 17.5,15.3092369 L17.5,15.3092369 Z" id="Shape" fill="#FFFFFF"></path>
                        </g>
                    </g>
                </g>
            </g>
        </g>
    </g>
</svg>